SplineFontDB: 3.2
FontName: Untitled1
FullName: Untitled1
FamilyName: Untitled1
Weight: Regular
Copyright: Copyright (c) 2025, Bastien
UComments: "2025-4-27: Created with FontForge (http://fontforge.org)"
Version: 001.000
ItalicAngle: 0
UnderlinePosition: -100
UnderlineWidth: 50
Ascent: 800
Descent: 224
InvalidEm: 0
LayerCount: 2
Layer: 0 0 "Arri+AOgA-re" 1
Layer: 1 0 "Avant" 0
XUID: [1021 760 1580941675 2877662]
OS2Version: 0
OS2_WeightWidthSlopeOnly: 0
OS2_UseTypoMetrics: 1
CreationTime: 1745767971
ModificationTime: 1745767971
OS2TypoAscent: 0
OS2TypoAOffset: 1
OS2TypoDescent: 0
OS2TypoDOffset: 1
OS2TypoLinegap: 0
OS2WinAscent: 0
OS2WinAOffset: 1
OS2WinDescent: 0
OS2WinDOffset: 1
HheadAscent: 0
HheadAOffset: 1
HheadDescent: 0
HheadDOffset: 1
OS2Vendor: 'PfEd'
DEI: 91125
Encoding: UnicodeBmp
Compacted: 1
UnicodeInterp: none
NameList: AGL For New Fonts
DisplaySize: -48
AntiAlias: 1
FitToEm: 0
WinInfo: 12 12 14
BeginChars: 65536 173

StartChar: A
Encoding: 65 65 0
Width: 620
VWidth: 1048
Flags: W
HStem: 0 21G<21.12 107.047 514.072 599.32> 180.28 67.04<152.12 493.12> 644.16 39.96<304.56 337.24> 687.88 20G<265.028 379.705>
VStem: 304.56 32.68<644.16 684.12>
LayerCount: 2
Fore
SplineSet
304.56 684.12 m 1
 337.24 684.12 l 1
 337.24 644.16 l 1
 304.56 644.16 l 1
 304.56 684.12 l 1
152.12 247.32 m 1
 493.12 247.32 l 1
 493.12 180.28 l 1
 152.12 180.28 l 1
 152.12 247.32 l 1
373.32 707.88 m 1
 599.32 0 l 1
 520.12 0 l 1
 306.04 707.88 l 1
 373.32 707.88 l 1
272.12 707.88 m 1
 338.4 707.88 l 1
 100.32 0 l 1
 21.12 0 l 1
 272.12 707.88 l 1
EndSplineSet
EndChar

StartChar: B
Encoding: 66 66 1
Width: 611
VWidth: 1048
Flags: W
HStem: 0 66.64<157.16 433.381> 343.88 66.56<157.16 419.007> 641.24 66.64<157.16 414.295>
VStem: 78.44 78.72<66.64 343.88 410.44 641.24> 460.04 80.48<450.856 600.054> 491.04 80.48<120.837 284.847>
LayerCount: 2
Fore
SplineSet
157.16 641.24 m 1xf8
 157.16 410.44 l 1
 330.76 410.44 l 2
 411.12 410.44 460.04 442.08 460.04 528.72 c 0
 460.04 614.6 400.2 641.24 325.24 641.24 c 2
 157.16 641.24 l 1xf8
157.16 343.88 m 1
 157.16 66.64 l 1
 347.64 66.64 l 2
 428.72 66.64 491.04 108.48 491.04 202.32 c 0xf4
 491.04 300.04 427.16 343.88 326.8 343.88 c 2
 157.16 343.88 l 1
78.44 0 m 1
 78.44 707.88 l 1
 328.92 707.88 l 2
 452.92 707.88 540.52 645.52 540.52 534.52 c 0xf8
 540.52 439.52 480.96 395.92 430.88 376.28 c 1
 513.88 359.28 571.52 295.04 571.52 196 c 0
 571.52 56 465.8 0 349.8 0 c 2
 78.44 0 l 1
EndSplineSet
EndChar

StartChar: C
Encoding: 67 67 2
Width: 607
VWidth: 1048
Flags: W
HStem: -7.12 66.16<256.87 458.526> 649.72 66.16<264.329 459.089>
VStem: 54.08 80.48<207.155 496.425>
LayerCount: 2
Fore
SplineSet
358.6 715.88 m 1
 450 715.88 525.56 678.76 575.04 602.16 c 1
 532.16 559.28 l 1
 491.72 616.36 445.16 649.72 360.44 649.72 c 1
 226.36 649.72 134.56 546.44 134.56 352.12 c 1
 134.56 161.72 217.88 59.04 351.96 59.04 c 1
 436.68 59.04 489.2 88.84 533.28 143.6 c 1
 571.52 95.36 l 1
 523.2 38.24 442.48 -7.12 349.88 -7.12 c 1
 174 -7.12 54.08 124.08 54.08 352.12 c 1
 54.08 584.92 182.72 715.88 358.6 715.88 c 1
EndSplineSet
EndChar

StartChar: D
Encoding: 68 68 3
Width: 620
VWidth: 1048
Flags: W
HStem: 0 66.64<154.64 377.585> 641.24 66.64<154.64 378.831>
VStem: 502 78.72<209.511 502.461>
LayerCount: 2
Fore
SplineSet
154.64 707.88 m 1
 272.16 707.88 l 1
 486.16 707.88 580.72 566 580.72 361 c 0
 580.72 138 485.16 0 268.16 0 c 1
 154.64 0 l 1
 154.64 66.64 l 1
 269.2 66.64 l 1
 405.48 66.64 502 141.36 502 361 c 0
 502 563.36 404.48 641.24 271.2 641.24 c 1
 154.64 641.24 l 1
 154.64 707.88 l 1
75.92 707.88 m 1
 154.64 707.88 l 1
 154.64 0 l 1
 75.92 0 l 1
 75.92 707.88 l 1
EndSplineSet
EndChar

StartChar: E
Encoding: 69 69 4
Width: 546
VWidth: 1048
Flags: W
HStem: 0 66.64<155.84 506.96> 330.88 72<154.96 431.36> 641.24 66.64<155.84 506.96>
VStem: 154.96 0.88<330.88 402.88>
LayerCount: 2
Fore
SplineSet
154.96 402.88 m 1
 431.36 402.88 l 1
 431.36 330.88 l 1
 154.96 330.88 l 1
 154.96 402.88 l 1
155.84 66.64 m 1
 506.96 66.64 l 1
 506.96 0 l 1
 155.84 0 l 1
 155.84 66.64 l 1
155.84 707.88 m 1
 506.96 707.88 l 1
 506.96 641.24 l 1
 155.84 641.24 l 1
 155.84 707.88 l 1
77.12 707.88 m 1
 155.84 707.88 l 1
 155.84 0 l 1
 77.12 0 l 1
 77.12 707.88 l 1
EndSplineSet
EndChar

StartChar: F
Encoding: 70 70 5
Width: 555
VWidth: 1048
Flags: W
HStem: 0 21G<78.56 158.16> 334.28 72<158.16 439.2> 641.24 66.64<158.16 517.2>
VStem: 78.56 79.6<0 334.28 406.28 641.24>
LayerCount: 2
Fore
SplineSet
158.16 406.28 m 1
 439.2 406.28 l 1
 439.2 334.28 l 1
 158.16 334.28 l 1
 158.16 406.28 l 1
158.16 707.88 m 1
 517.2 707.88 l 1
 517.2 641.24 l 1
 158.16 641.24 l 1
 158.16 707.88 l 1
78.56 707.88 m 1
 158.16 707.88 l 1
 158.16 0 l 1
 78.56 0 l 1
 78.56 707.88 l 1
EndSplineSet
EndChar

StartChar: G
Encoding: 71 71 6
Width: 637
VWidth: 1048
Flags: W
LayerCount: 2
Fore
SplineSet
187.84 312.4 m 1
 187.84 139.92 238.52 47.52 358.2 47.52 c 1
 434.76 47.52 495.72 106.48 520.36 194.48 c 1
 519.04 187.76 522.6 127.52 511.08 127.52 c 1
 481.8 65.92 400.8 7.16 302.24 36.2 c 0
 150 63.08 68.96 192.28 91.88 398.2 c 0
 105.32 604.12 221.56 710.6 372 701.12 c 1
 456.48 701.12 535.24 664.36 580.12 564.92 c 1
 575.32 571.28 522.88 548.52 514.72 548.52 c 1
 457.72 636.52 385.36 638.08 322 618.76 c 0
 200.56 596.44 187.84 483.12 187.84 312.4 c 1
EndSplineSet
EndChar

StartChar: H
Encoding: 72 72 7
Width: 612
VWidth: 1048
Flags: W
HStem: 0 21G<76.88 155.6 457.32 536.04> 341.56 72<155.6 457.32> 687.88 20G<76.88 155.6 457.32 536.04>
VStem: 76.88 78.72<0 341.56 413.56 707.88> 457.32 78.72<0 707.88>
LayerCount: 2
Fore
SplineSet
155.6 413.56 m 1
 457.32 413.56 l 1
 457.32 341.56 l 1
 155.6 341.56 l 1
 155.6 413.56 l 1
457.32 707.88 m 1
 536.04 707.88 l 1
 536.04 0 l 1
 457.32 0 l 1
 457.32 707.88 l 1
76.88 707.88 m 1
 155.6 707.88 l 1
 155.6 0 l 1
 76.88 0 l 1
 76.88 707.88 l 1
EndSplineSet
EndChar

StartChar: I
Encoding: 73 73 8
Width: 233
VWidth: 1048
Flags: W
HStem: 0 21G<77.6 156.32> 687.88 20G<77.6 156.32>
VStem: 77.6 78.72<0 707.88>
LayerCount: 2
Fore
SplineSet
77.6 707.88 m 1
 156.32 707.88 l 1
 156.32 0 l 1
 77.6 0 l 1
 77.6 707.88 l 1
EndSplineSet
EndChar

StartChar: J
Encoding: 74 74 9
Width: 479
VWidth: 1048
Flags: W
HStem: -7.12 65.76<126.328 275.94> 687.88 20G<324.72 403.44>
VStem: 324.72 78.72<110.686 707.88>
LayerCount: 2
Fore
SplineSet
403.44 707.88 m 1
 403.44 211.92 l 1
 403.44 64.48 309.32 -7.12 201.04 -7.12 c 1
 136.12 -7.12 63.52 12.44 20.16 102.36 c 1
 80.08 138.12 l 1
 106.68 75.76 156.16 58.64 202.4 58.64 c 3
 281.12 58.64 324.72 106.56 324.72 208.92 c 1
 324.72 707.88 l 1
 403.44 707.88 l 1
EndSplineSet
EndChar

StartChar: K
Encoding: 75 75 10
Width: 581
VWidth: 1048
Flags: W
HStem: 0 21G<82.24 161.2 432.465 553.92> 687.88 20G<82.24 161.2 430.864 552.8>
VStem: 82.24 78.96<0 707.88>
LayerCount: 2
Fore
SplineSet
553.92 0 m 1
 449.04 0 l 1
 149.04 362 l 1
 200.8 401 l 1
 553.92 0 l 1
200.8 319 m 1
 149.04 362 l 1
 448.16 707.88 l 1
 552.8 707.88 l 1
 200.8 319 l 1
82.24 707.88 m 1
 161.2 707.88 l 1
 161.2 0 l 1
 82.24 0 l 1
 82.24 707.88 l 1
EndSplineSet
EndChar

StartChar: L
Encoding: 76 76 11
Width: 518
VWidth: 1048
Flags: W
HStem: 0 66.64<154.88 480.88> 687.88 20G<76.16 154.88>
VStem: 76.16 78.72<66.64 707.88>
LayerCount: 2
Fore
SplineSet
154.88 66.64 m 1
 480.88 66.64 l 1
 480.88 0 l 1
 154.88 0 l 1
 154.88 66.64 l 1
76.16 707.88 m 1
 154.88 707.88 l 1
 154.88 0 l 1
 76.16 0 l 1
 76.16 707.88 l 1
EndSplineSet
EndChar

StartChar: M
Encoding: 77 77 12
Width: 741
VWidth: 1048
Flags: W
HStem: 0 21G<83.68 162.4 578.6 657.32> 687.88 20G<83.68 185.122 556.181 657.32>
VStem: 83.68 78.72<0 578.88> 156.4 6<578.88 707.88> 578.6 78.72<0 578.88> 578.6 7<578.88 707.88>
LayerCount: 2
Fore
SplineSet
585.6 707.88 m 17xc4
 589.44 578.88 l 1
 421.36 180.64 l 1
 340.64 180.64 l 1
 564.68 707.88 l 1
 585.6 707.88 l 17xc4
156.4 707.88 m 25xd0
 176.32 707.88 l 1
 408.36 180.64 l 1
 328.64 180.64 l 1
 152.56 578.88 l 1
 156.4 707.88 l 25xd0
578.6 707.88 m 1xc4
 657.32 707.88 l 1
 657.32 0 l 1
 578.6 0 l 1xc8
 578.6 707.88 l 1xc4
83.68 707.88 m 1xe0
 162.4 707.88 l 1xd0
 162.4 0 l 1
 83.68 0 l 1
 83.68 707.88 l 1xe0
EndSplineSet
EndChar

StartChar: N
Encoding: 78 78 13
Width: 667
VWidth: 1048
Flags: W
HStem: 0 21G<84.4 163.12 482.399 582.6> 687.88 20G<84.4 184.734 503.88 582.6>
VStem: 84.4 78.72<0 588.36> 156.12 7<588.36 707.88> 503.88 78.72<124.52 707.88> 503.88 8<0 124.52>
LayerCount: 2
Fore
SplineSet
156.12 707.88 m 1xd4
 173.12 707.88 l 1
 511.88 124.52 l 1
 511.88 0 l 1
 493.88 0 l 1
 156.12 588.36 l 1
 156.12 707.88 l 1xd4
503.88 707.88 m 1xc8
 582.6 707.88 l 1
 582.6 0 l 1xc8
 503.88 0 l 1xc4
 503.88 707.88 l 1xc8
84.4 707.88 m 1xe0
 163.12 707.88 l 1xd0
 163.12 0 l 1
 84.4 0 l 1
 84.4 707.88 l 1xe0
EndSplineSet
EndChar

StartChar: O
Encoding: 79 79 14
Width: 663
VWidth: 1048
Flags: W
HStem: -8 65.68<242.983 424.996> 649.32 66.56<242.157 426.75>
VStem: 54.08 78.72<194.686 515.209> 530.24 79.6<190.04 515.33>
LayerCount: 2
Fore
SplineSet
132.8 354 m 0
 132.8 142.6 211.92 57.68 334.72 57.68 c 0
 457.76 57.68 530.24 142.84 530.24 354 c 0
 530.24 565.04 457.76 649.32 334.72 649.32 c 0
 211.8 649.32 132.8 565.4 132.8 354 c 0
54.08 354 m 0
 54.08 620.72 188.84 715.88 335.2 715.88 c 0
 481.44 715.88 609.84 619.08 609.84 356.4 c 0
 609.84 93.08 489.52 -8 334.48 -8 c 0
 177.44 -8 54.08 97.08 54.08 354 c 0
EndSplineSet
EndChar

StartChar: P
Encoding: 80 80 15
Width: 605
VWidth: 1048
Flags: W
HStem: 0 21G<83.92 158.24> 260.12 66.64<158.24 396.292> 641.24 66.64<158.24 403.307>
VStem: 83.92 74.32<0 260.12 326.76 641.24> 473.52 78.72<404.962 568.677>
LayerCount: 2
Fore
SplineSet
158.24 707.88 m 1
 158.24 707.88 255.04 707.88 329.04 707.88 c 0
 460.04 707.88 552.24 609.12 552.24 489.56 c 0
 552.24 360.4 453.32 260.12 310.32 260.12 c 1
 158.24 260.12 l 1
 158.24 326.76 l 1
 310.08 326.76 l 1
 411.28 326.76 473.52 400.76 473.52 489.08 c 0
 473.52 573.52 409.2 641.24 326.16 641.24 c 1
 158.24 641.24 l 1
 158.24 707.88 l 1
83.92 707.88 m 1
 158.24 707.88 l 1
 158.24 0 l 1
 83.92 0 l 1
 83.92 707.88 l 1
EndSplineSet
EndChar

StartChar: Q
Encoding: 81 81 16
Width: 662
VWidth: 1048
Flags: W
HStem: -184 64.8<417.022 555.84> -8 8<297.52 368.48> 648.44 66.56<238.557 423.15>
VStem: 50.48 78.72<195.212 514.551> 526.64 79.6<190.576 514.672>
LayerCount: 2
Fore
SplineSet
129.2 354 m 0
 129.2 142.6 208.32 58.16 331.12 58.16 c 0
 454.16 58.16 526.64 142.84 526.64 354 c 0
 526.64 565.04 454.16 648.44 331.12 648.44 c 0
 208.2 648.44 129.2 565.4 129.2 354 c 0
50.48 354 m 0
 50.48 618.32 185.24 715 331.6 715 c 0
 477.84 715 606.24 616.68 606.24 356.4 c 0
 606.24 95.36 485.92 -8 330.88 -8 c 0
 173.84 -8 50.48 99.36 50.48 354 c 0
368.48 0 m 1
 368.48 0 375.12 -119.2 483.84 -119.2 c 0
 520.8 -119.2 555.84 -119.2 555.84 -119.2 c 1
 577.36 -165.12 l 1
 577.36 -165.12 541.92 -184 475.12 -184 c 0
 358.32 -184 297.52 -83.6 297.52 0 c 1
 368.48 0 l 1
EndSplineSet
EndChar

StartChar: R
Encoding: 82 82 17
Width: 607
VWidth: 1048
Flags: W
HStem: 0 21G<83.8 162.52 468.79 569.04> 289.44 66.64<162.52 406.617> 641.24 66.64<162.52 412.733>
VStem: 83.8 78.72<0 707.88> 471.56 80.48<418.153 583.756>
LayerCount: 2
Fore
SplineSet
83.8 707.88 m 1
 162.52 707.88 l 1
 162.52 0 l 1
 83.8 0 l 1
 83.8 707.88 l 1
162.52 707.88 m 1
 162.52 707.88 255.04 707.88 329.04 707.88 c 0
 469.72 707.88 552.04 621.84 552.04 502.04 c 0
 552.04 372.28 462.72 289.44 310.04 289.44 c 1
 162.52 289.44 l 1
 162.52 356.08 l 1
 311.12 356.08 l 1
 421.48 356.08 471.56 414.32 471.56 502.04 c 0
 471.56 585.52 420.88 641.24 327.36 641.24 c 1
 162.52 641.24 l 1
 162.52 707.88 l 1
313.84 300.44 m 1
 390.8 303.8 l 1
 569.04 0 l 1
 479.84 0 l 1
 313.84 300.44 l 1
EndSplineSet
EndChar

StartChar: S
Encoding: 83 83 18
Width: 594
VWidth: 1048
Flags: W
HStem: 31.64 85.88<233.553 402.847> 592.76 86.52<200.107 351.401>
VStem: 97.64 41.04<423.474 554.211> 465.08 40.92<158.509 287.854>
LayerCount: 2
Fore
SplineSet
124.96 216.04 m 1
 174.04 158.84 235.04 126.76 328.28 117.52 c 1
 433 117.52 465.08 159.48 465.08 224.6 c 1
 459.92 308.88 400.28 339.56 310 356.28 c 1
 299.68 356.28 252.56 360.76 252.56 353.92 c 1
 139.04 367.68 88.88 426.96 97.64 516.68 c 1
 97.64 609.08 181.52 679.28 315.28 679.28 c 1
 389.84 676.04 476.96 647.64 529.76 555.8 c 1
 529.76 541.04 471.8 499.76 452 499.76 c 1
 405.36 551.68 344.56 582.56 273.44 592.76 c 1
 176.64 592.76 138.68 554.92 138.68 490.68 c 1
 143.12 412.08 185.16 375.36 290 356 c 1
 301.04 356 349.84 350.88 349.84 358.68 c 1
 461.24 342.36 516.2 290 506 197.88 c 1
 506 100.2 420.48 31.64 289.36 31.64 c 1
 162.8 34.28 100.52 76.4 50.24 154.08 c 1
 50.24 168.12 105.76 216.04 124.96 216.04 c 1
EndSplineSet
EndChar

StartChar: T
Encoding: 84 84 19
Width: 611
VWidth: 1048
Flags: W
HStem: 0 21G<265.64 344.36> 639.88 68<46.56 265.64 344.36 564.44>
VStem: 265.64 78.72<0 639.88>
LayerCount: 2
Fore
SplineSet
46.56 707.88 m 1
 564.44 707.88 l 1
 564.44 639.88 l 1
 46.56 639.88 l 1
 46.56 707.88 l 1
265.64 639.88 m 1
 344.36 639.88 l 1
 344.36 0 l 1
 265.64 0 l 1
 265.64 639.88 l 1
EndSplineSet
EndChar

StartChar: U
Encoding: 85 85 20
Width: 634
VWidth: 1048
Flags: W
HStem: -8 66.16<227.698 405.92> 687.88 20G<77.12 155.84 478.2 556.92>
VStem: 77.12 78.72<139.054 707.88> 478.2 78.72<139.054 707.88>
LayerCount: 2
Fore
SplineSet
77.12 707.88 m 1
 155.84 707.88 l 1
 155.84 263.4 l 1
 155.84 100.12 226.24 58.16 319.28 58.16 c 0
 406.32 58.16 478.2 100.12 478.2 263.4 c 1
 478.2 707.88 l 1
 556.92 707.88 l 1
 556.92 262.36 l 1
 556.92 67.04 449.08 -8 315.28 -8 c 0
 185.6 -8 77.12 67.04 77.12 264.36 c 1
 77.12 707.88 l 1
EndSplineSet
EndChar

StartChar: V
Encoding: 86 86 21
Width: 655
VWidth: 1048
Flags: W
HStem: 0 21G<269.916 384.113> 687.88 20G<38.64 132.745 522.198 616.36>
LayerCount: 2
Fore
SplineSet
300.64 0 m 1
 528.64 707.88 l 1
 616.36 707.88 l 1
 377.36 0 l 1
 300.64 0 l 1
38.64 707.88 m 1
 126.36 707.88 l 1
 352.36 0 l 1
 276.64 0 l 1
 38.64 707.88 l 1
EndSplineSet
EndChar

StartChar: W
Encoding: 87 87 22
Width: 812
VWidth: 1048
Flags: W
HStem: 0 21G<184.629 289.332 526.781 627.365> 687.88 19.12G<26.24 112.137 363.722 456.052 699.868 785.76>
VStem: 26.24 81.68<675.909 707> 704.08 81.68<676.751 707.88>
LayerCount: 2
Fore
SplineSet
600.92 0 m 1
 531.16 0 l 1
 376.16 707.88 l 1
 451.84 707.88 l 1
 600.92 0 l 1
785.76 707.88 m 1
 622.76 0 l 1
 555 0 l 1
 704.08 707.88 l 1
 785.76 707.88 l 1
211.08 0 m 1
 368.16 707.88 l 1
 443.84 707.88 l 1
 284.84 0 l 1
 211.08 0 l 1
26.24 707 m 1
 107.92 707 l 1
 257 0 l 1
 189.24 0 l 1
 26.24 707 l 1
EndSplineSet
EndChar

StartChar: X
Encoding: 88 88 23
Width: 660
VWidth: 1048
Flags: W
HStem: 0 21G<53.48 159.173 499.879 606.52> 687.88 20G<53.48 159.221 499.831 606.52>
LayerCount: 2
Fore
SplineSet
53.48 707.88 m 1
 146.68 707.88 l 1
 329.88 415.72 l 1
 512.32 707.88 l 1
 606.52 707.88 l 1
 377.52 354 l 1
 606.52 0 l 1
 512.32 0 l 1
 329.88 293.28 l 1
 146.68 0 l 1
 53.48 0 l 1
 281.76 354 l 1
 53.48 707.88 l 1
EndSplineSet
EndChar

StartChar: Y
Encoding: 89 89 24
Width: 595
VWidth: 1048
Flags: W
HStem: 0 21G<260.24 339.84> 687.88 20G<21.12 124.879 471.14 574.72>
VStem: 260.24 79.6<0 275>
LayerCount: 2
Fore
SplineSet
260.24 275 m 1
 339.84 275 l 1
 339.84 0 l 1
 260.24 0 l 1
 260.24 275 l 1
265.12 275 m 1
 481.12 707.88 l 1
 574.72 707.88 l 1
 334.72 263 l 1
 265.12 275 l 1
21.12 707.88 m 1
 114.72 707.88 l 1
 334.72 274.76 l 1
 265.12 263 l 1
 21.12 707.88 l 1
EndSplineSet
EndChar

StartChar: Z
Encoding: 90 90 25
Width: 603
VWidth: 1048
Flags: W
HStem: 0 66.16<152.48 539.72> 641.72 66.16<63.28 539.72>
LayerCount: 2
Fore
SplineSet
450.52 641.72 m 1
 539.72 641.72 l 1
 152.48 66.16 l 1
 63.28 66.16 l 1
 450.52 641.72 l 1
63.28 66.16 m 1
 539.72 66.16 l 1
 539.72 0 l 1
 63.28 0 l 1
 63.28 66.16 l 1
63.28 707.88 m 1
 539.72 707.88 l 1
 539.72 641.72 l 1
 63.28 641.72 l 1
 63.28 707.88 l 1
EndSplineSet
EndChar

StartChar: bracketleft
Encoding: 91 91 26
Width: 400
VWidth: 1048
Flags: W
HStem: -66 67.04<121.4 299.48> 751.96 67.04<121.4 299.48>
VStem: 77 222.48<-66 1.04 751.96 819> 121.4 36.08<-66 1.04 751.96 819>
LayerCount: 2
Fore
SplineSet
121.4 751.96 m 1xd0
 121.4 819 l 1xd0
 299.48 819 l 1
 299.48 751.96 l 1xe0
 121.4 751.96 l 1xd0
121.4 -66 m 1
 121.4 1.04 l 1xd0
 299.48 1.04 l 1
 299.48 -66 l 1xe0
 121.4 -66 l 1
77 819 m 1xe0
 157.48 819 l 1
 157.48 -66 l 1xd0
 77 -66 l 1
 77 819 l 1xe0
EndSplineSet
EndChar

StartChar: backslash
Encoding: 92 92 27
Width: 426
VWidth: 1048
Flags: W
HStem: 748 20G<1 93.9732>
LayerCount: 2
Fore
SplineSet
426.48 -35 m 1
 342 -35 l 1
 1 768 l 1
 85.48 768 l 1
 426.48 -35 l 1
EndSplineSet
EndChar

StartChar: bracketright
Encoding: 93 93 28
Width: 400
VWidth: 1048
Flags: W
HStem: -66 67.04<77 256.08> 751.96 67.04<77 256.08>
VStem: 77 222.6<-66 1.04 751.96 819> 220 36.08<-66 1.04 751.96 819>
LayerCount: 2
Fore
SplineSet
256.08 751.96 m 1xd0
 77 751.96 l 1
 77 819 l 1xe0
 256.08 819 l 1
 256.08 751.96 l 1xd0
256.08 -66 m 1xd0
 77 -66 l 1
 77 1.04 l 1xe0
 256.08 1.04 l 1
 256.08 -66 l 1xd0
299.6 819 m 1
 299.6 -66 l 1xe0
 220 -66 l 1
 220 819 l 1xd0
 299.6 819 l 1
EndSplineSet
EndChar

StartChar: asciicircum
Encoding: 94 94 29
Width: 505
VWidth: 1048
Flags: W
HStem: 667 185
VStem: 77 327
LayerCount: 2
Fore
SplineSet
77 716 m 25
 208 852 l 1
 273 852 l 25
 404 716 l 25
 364 667 l 25
 241 786 l 25
 118 667 l 25
 77 716 l 25
EndSplineSet
EndChar

StartChar: underscore
Encoding: 95 95 30
Width: 579
VWidth: 1048
Flags: W
HStem: -71.04 71.04<95 496>
LayerCount: 2
Fore
SplineSet
95 0 m 1
 496 0 l 1
 496 -71.04 l 1
 95 -71.04 l 1
 95 0 l 1
EndSplineSet
EndChar

StartChar: grave
Encoding: 96 96 31
Width: 290
VWidth: 1048
Flags: W
HStem: 527 241.88
VStem: 32 223
LayerCount: 2
Fore
SplineSet
130 768.88 m 1
 255 527 l 1
 188 527.88 l 1
 32 768.88 l 1
 130 768.88 l 1
EndSplineSet
EndChar

StartChar: a
Encoding: 97 97 32
Width: 530
Flags: W
HStem: -8 64.8<163.058 317.024> 0 21G<391.003 459.52> 246.76 64.48<163.394 379.92> 460.84 66.16<171.492 338.43>
VStem: 55.04 79.6<85.7629 218.663> 379.92 79.6<108.389 246.76 311.24 420.249> 394.08 65.44<0 46.592>
LayerCount: 2
Fore
SplineSet
134.64 148.8 m 0xbc
 134.64 88.92 168.96 56.8 241.44 56.8 c 0
 301 56.8 353.36 87.36 379.92 139.32 c 1
 379.92 246.76 l 1
 266.32 246.76 l 2
 165.52 246.76 134.64 223.48 134.64 148.8 c 0xbc
381.44 82.16 m 1
 361.92 33.36 300.48 -8 233.84 -8 c 0
 123.68 -8 55.04 51.88 55.04 147.84 c 0
 55.04 252.84 114.12 311.24 252.8 311.24 c 2
 379.92 311.24 l 1
 379.92 343.6 l 2
 379.92 424.48 332.36 460.84 257.52 460.84 c 0
 197.88 460.84 160.08 439.68 129.68 400.64 c 1
 82.08 439.76 l 1
 116.64 494.72 180.04 527 260.24 527 c 0
 371.88 527 459.52 471.72 459.52 329.24 c 2
 459.52 127.4 l 1xbc
 459.52 0 l 1
 394.08 0 l 1x7a
 381.44 82.16 l 1
EndSplineSet
EndChar

StartChar: b
Encoding: 98 98 33
Width: 589
VWidth: 1048
Flags: W
HStem: -6.16 53.68<196.951 346.343> -0.96 21G<146.82 160.98> 411.84 138.6<189.867 343.942>
VStem: 82.08 112.64<88.16 318.659> 410.72 80.48<123.758 338.149>
LayerCount: 2
Fore
SplineSet
128.24 472.12 m 1xb8
 142.32 508.2 204.32 550.44 287.92 550.44 c 1
 399.68 550.44 491.2 397.88 491.2 247.4 c 1
 491.2 79.32 395.12 -6.16 286 -6.16 c 1
 184.8 -6.16 125.6 66.88 112.4 115.28 c 1
 118.56 176 l 1
 134.4 108.24 191.6 47.52 269.04 47.52 c 1
 357.92 47.52 410.72 105.6 410.72 234.08 c 1
 410.72 351.12 351.76 411.84 269.04 411.84 c 1
 201.28 411.84 152 374 136.16 322.08 c 1
 128.24 472.12 l 1xb8
85.2 681.4 m 1
 85.2 694 157.4 700.36 168.56 700.36 c 1
 185.36 700.36 194.72 130.76 194.72 108.92 c 1
 194.72 88.16 168.36 -0.96 153.6 -0.96 c 1x78
 140.04 -0.96 82.68 7.56 82.08 21.72 c 1
 85.2 681.4 l 1
EndSplineSet
EndChar

StartChar: c
Encoding: 99 99 34
Width: 507
VWidth: 1048
Flags: W
HStem: 5.36 85.56<231.695 366.638> 454.96 20G<246.52 342.1>
VStem: 99.56 72.6<162.883 359.663>
LayerCount: 2
Fore
SplineSet
383.28 373.4 m 0
 347.2 448.88 319.6 475.08 282.64 475.08 c 0
 209.24 475.08 165.32 408.56 172.16 279 c 0
 172.16 158.44 217.48 90.92 298.44 90.92 c 0
 360.48 96.08 388.96 122.92 416.88 173.96 c 0
 407.28 173.96 445.28 133.32 445.28 120.24 c 0
 396.88 41.68 361.52 5.36 284.88 5.36 c 0
 179.52 5.36 95.6 95.56 99.56 247.68 c 0
 99.56 394.64 187.12 474.96 305.92 474.96 c 0
 378.28 465.96 421.32 438.16 457.76 370.4 c 0
 439.28 370.4 383.28 353 383.28 373.4 c 0
EndSplineSet
EndChar

StartChar: d
Encoding: 100 100 35
Width: 600
VWidth: 1048
Flags: W
HStem: -6.16 53.68<236.771 392.999> 422.52 42.12<235.741 428.752>
VStem: 113.6 51.92<126.951 345.697> 437.44 64.88<449.146 658.84>
LayerCount: 2
Fore
SplineSet
458.56 472.12 m 1
 435.28 407.88 l 1
 419.44 459.8 370.16 422.52 302.4 422.52 c 1
 219.68 422.52 165.52 351.12 165.52 234.08 c 1
 165.52 105.6 228.88 47.52 317.76 47.52 c 1
 395.2 47.52 452.4 108.24 468.24 176 c 1
 474.4 115.28 l 1
 461.2 66.88 415.44 -6.16 314.24 -6.16 c 1
 205.12 -6.16 113.6 68.64 113.6 236.72 c 1
 113.6 387.2 202.48 464.64 314.24 464.64 c 1
 397.84 464.64 444.48 508.2 458.56 472.12 c 1
502.32 681.4 m 1
 502.32 693.16 494.52 63.24 483.36 63.24 c 1
 466.56 63.24 407.04 52.44 407.04 30.6 c 1
 407.04 9.84 403.48 77.36 418.24 77.36 c 1
 431.8 77.36 437.44 645.04 437.44 658.84 c 1
 502.32 681.4 l 1
EndSplineSet
EndChar

StartChar: e
Encoding: 101 101 36
Width: 546
VWidth: 1048
Flags: W
HStem: -8 64.8<206.872 381.631> 235.6 65.36<134.64 416.32> 461.72 65.28<202.084 362.801>
VStem: 55.04 79.6<137.196 235.6 300.96 388.022> 416.32 75.08<301.663 404.509>
LayerCount: 2
Fore
SplineSet
286.64 461.72 m 1
 184.2 461.72 134.64 390.68 134.64 300.96 c 1
 416.32 300.96 l 1
 416.32 318.24 l 1
 416.32 412.04 362.84 461.72 286.64 461.72 c 1
288 527 m 0
 398.68 527 491.4 446.16 491.4 305.44 c 1
 491.4 278.44 489.16 254.36 478.64 235.6 c 1
 134.64 235.6 l 1
 134.64 134.32 187.2 56.8 287.84 56.8 c 0
 353.28 56.8 400.72 78.76 436.52 128.44 c 1
 485.48 85.52 l 1
 431.04 24.32 377.16 -8 284.88 -8 c 0
 144.68 -8 55.04 95.96 55.04 261 c 0
 55.04 423.68 143.12 527 288 527 c 0
EndSplineSet
EndChar

StartChar: f
Encoding: 102 102 37
Width: 417
VWidth: 1048
Flags: W
HStem: 0 21G<152.16 232.64> 454.68 65.2<53.12 366.24> 668.96 63.04<247.102 367.76>
VStem: 152.16 80.48<0 654.133>
LayerCount: 2
Fore
SplineSet
301.92 668.96 m 1
 257.56 668.96 232.64 648.16 232.64 595.8 c 1
 232.64 0 l 1
 152.16 0 l 1
 152.16 581.36 l 1
 152.16 681.68 211.48 732 301.44 732 c 1
 325.92 732 348.28 729.88 374.72 725 c 1
 367.76 668.96 l 1
 348.4 668.96 323.04 668.96 301.92 668.96 c 1
53.12 519.88 m 1
 152.16 519.88 l 1
 366.24 519.88 l 1
 366.24 454.68 l 1
 259.04 454.68 l 1
 53.12 454.68 l 1
 53.12 519.88 l 1
EndSplineSet
EndChar

StartChar: g
Encoding: 103 103 38
Width: 554
VWidth: 1048
Flags: W
HStem: -173.52 43.2<149.459 379.323> 10.56 67.52<174.4 422.458> 27.16 45.28<138.06 192.88> 464.04 63.84<166.737 307.415> 467.08 40.32<307.28 310.563 408.48 454.98>
VStem: 53.12 71.4<89.4641 160.932 288.523 419.926> 355.28 79.12<283.454 426.749> 436.88 80.48<-88.555 -3.41469>
LayerCount: 2
Fore
SplineSet
255.2 188.28 m 1xa7
 165.12 181.4 124.52 160.24 124.52 121.52 c 0
 124.52 92.08 159.52 78.08 199.84 78.08 c 0xc7
 192.88 27.16 l 0
 98.8 27.16 53.12 66.92 53.12 119.92 c 0
 53.12 189.92 139.96 221.12 234.96 230.8 c 1
 255.2 188.28 l 1xa7
356.16 10.56 m 1
 174.4 10.56 l 1
 148.72 -1.44 122 -27.24 122 -64.2 c 1
 122 -111.8 177.72 -130.32 258.64 -130.32 c 0
 353.08 -130.32 436.04 -100.4 436.88 -48.92 c 0
 437 -1.92 399.64 10.56 356.16 10.56 c 1
347.28 78.08 m 1
 444.52 78.08 517.36 42.72 517.36 -43.4 c 1
 517.36 -124.32 407.24 -172.68 288.32 -173.52 c 0
 176.52 -184.44 88.76 -149.76 70.16 -82.88 c 1
 51.56 -18.64 117.36 18.6 173.68 44.72 c 1
 173.68 53.12 187.12 71 192.64 72.44 c 1xa7
 347.28 78.08 l 1
130.08 357.28 m 0
 130.08 284.04 166 248.12 243.76 248.12 c 0
 315.48 248.12 355.28 284.04 355.28 357.04 c 0
 355.28 421.36 315.48 464.04 243.76 464.04 c 0x97
 166.12 464.04 130.08 421.6 130.08 357.28 c 0
50.48 361.4 m 0
 50.48 462.76 124.84 527.88 240 527.88 c 0
 358.04 527.88 434.4 462.52 434.4 361.4 c 0
 434.4 253 355.92 187.28 238.24 187.28 c 0
 115.4 187.28 50.48 262.56 50.48 361.4 c 0
408.48 467.08 m 1x8f
 374.8 467.08 l 1
 350.16 454.6 l 1
 307.28 507.4 l 1
 489.44 507.4 l 1
 489.44 454.6 l 1
 408.48 467.08 l 1x8f
EndSplineSet
EndChar

StartChar: h
Encoding: 104 104 39
Width: 548
VWidth: 1048
Flags: W
HStem: 0 21G<62.56 142.16 405.24 485.72> 461.24 66.64<202.986 352.006> 687 20G<62.56 142.16>
VStem: 62.56 79.6<0 350 408.8 707> 405.24 80.48<0 408.251>
LayerCount: 2
Fore
SplineSet
125.24 408.8 m 1
 140.2 463.44 194.2 527.88 290.28 527.88 c 0
 418.48 527.88 485.72 436.56 485.72 324.92 c 1
 485.72 0 l 1
 405.24 0 l 1
 405.24 321.48 l 2
 405.24 408.96 358.04 461.24 276.48 461.24 c 0
 209.72 461.24 163.2 419.88 141.2 350 c 1
 125.24 408.8 l 1
62.56 707 m 1
 142.16 707 l 1
 142.16 0 l 1
 62.56 0 l 1
 62.56 707 l 1
EndSplineSet
EndChar

StartChar: i
Encoding: 105 105 40
Width: 313
VWidth: 1048
Flags: W
HStem: 499 20G<136.28 186.955> 630.04 108.96<130.827 217.573>
VStem: 120.16 108.08<640.707 728.015> 133.08 65.12<62.28 250.776> 148.44 38<277.704 466.2>
LayerCount: 2
Fore
SplineSet
120.16 684.08 m 0xe0
 120.16 714.16 144.12 739 174.2 739 c 0
 204.28 739 228.24 714.16 228.24 684.08 c 0
 228.24 654 204.28 630.04 174.2 630.04 c 0
 144.12 630.04 120.16 654 120.16 684.08 c 0xe0
148.44 466.2 m 1xc8
 57.8 403.92 l 1
 42.44 456.72 l 1
 133.08 507.48 l 1xd0
 136.28 507.48 l 1
 186.44 519 l 1xc8
 198.2 62.28 l 1
 133.08 62.28 l 1xd0
 148.44 466.2 l 1xc8
EndSplineSet
EndChar

StartChar: j
Encoding: 106 106 41
Width: 270
VWidth: 1048
Flags: W
HStem: -191.12 65.28<10.56 74.3296> 499 20G<96.04 176.52> 630.04 108.96<93.7869 181.095>
VStem: 83.12 108.96<640.707 728.015> 96.04 80.48<-107.178 519>
LayerCount: 2
Fore
SplineSet
83.12 684.08 m 0xf0
 83.12 714.16 107.08 739 137.16 739 c 0
 167.24 739 192.08 714.16 192.08 684.08 c 0
 192.08 654 167.24 630.04 137.16 630.04 c 0
 107.08 630.04 83.12 654 83.12 684.08 c 0xf0
10.56 -125.84 m 1
 79.44 -125.84 96.04 -98.92 96.04 -19.88 c 1
 96.04 519 l 1
 176.52 519 l 1
 176.52 -21.08 l 1xe8
 176.28 -134.72 129.52 -191.12 10.56 -191.12 c 1
 10.56 -191.12 15.12 -191.12 0 -191.12 c 1
 0 -191.12 15.12 -138.32 0 -138.32 c 1
 10.56 -125.84 l 1
EndSplineSet
EndChar

StartChar: k
Encoding: 107 107 42
Width: 514
VWidth: 1048
Flags: W
HStem: 0 21G<78.08 158.56 371.297 497.12> 499 20G<358.814 492.8>
VStem: 78.08 80.48<0 724>
LayerCount: 2
Fore
SplineSet
238.16 275 m 1
 497.12 0 l 1
 389.2 0 l 1
 143.04 275 l 1
 238.16 275 l 1
143.04 275 m 1
 378.08 519 l 1
 492.8 519 l 1
 238.16 275 l 1
 143.04 275 l 1
78.08 724 m 1
 158.56 724 l 1
 158.56 0 l 1
 78.08 0 l 1
 78.08 724 l 1
EndSplineSet
EndChar

StartChar: l
Encoding: 108 108 43
Width: 262
VWidth: 1048
Flags: W
HStem: -7.12 63.04<159.352 238.24> 748 20G<75.92 155.52>
VStem: 75.92 79.6<59.9271 768>
LayerCount: 2
Fore
SplineSet
170.8 -7.12 m 1
 107.8 -7.12 75.92 27.72 75.92 93.76 c 1
 75.92 768 l 1
 155.52 768 l 1
 155.52 95.36 l 1
 155.52 67.76 167 55.92 193.84 55.92 c 1
 238.24 55.92 l 1
 248.24 0 l 1
 229.4 -5.12 194.6 -7.12 170.8 -7.12 c 1
EndSplineSet
EndChar

StartChar: m
Encoding: 109 109 44
Width: 825
VWidth: 1048
Flags: W
HStem: 0 21G<77.12 156.72 375.44 455.04 676.8 756.4> 460.36 66.64<210.91 342.865 504.741 640.273> 499 20G<77.12 144.316>
VStem: 77.12 79.6<0 373.96 430 469.872> 77.12 63.6<479.128 519> 375.44 79.6<0 424.48> 676.8 79.6<0 424.125>
LayerCount: 2
Fore
SplineSet
432.24 417.12 m 1xc6
 444.56 465 497.84 527 597.84 527 c 1
 691.92 527 756.4 459.24 756.4 351.24 c 1
 756.4 0 l 1
 676.8 0 l 1
 676.8 349.28 l 1
 676.68 425.44 629.52 460.36 575.12 460.36 c 1
 512.8 460.36 464.32 424.76 444.32 372.12 c 1
 432.24 417.12 l 1xc6
146.96 428.36 m 1
 156.64 465.44 200.76 527 301.28 527 c 1
 374.56 527 422.2 484.92 443.04 424.48 c 1
 455.04 424.48 l 1
 455.04 0 l 1
 375.44 0 l 1
 375.44 362.04 l 1
 375.44 421.12 334.28 460.36 279.28 460.36 c 1
 216.08 460.36 167.52 422.76 155.76 373.96 c 1
 146.96 428.36 l 1
77.12 519 m 1xae
 140.72 519 l 1xae
 156.72 430 l 1
 156.72 0 l 1
 77.12 0 l 1xb6
 77.12 519 l 1xae
EndSplineSet
EndChar

StartChar: n
Encoding: 110 110 45
Width: 538
VWidth: 1048
Flags: W
HStem: 0 21G<63.04 142.76 395.28 475.76> 460.36 66.64<198.816 341.939> 499 20G<63.04 131.848>
VStem: 63.04 64.44<308.32 308.32 410.24 460.363 494.239 519> 125.72 17.04<308.32 308.32 410.24 462.24> 395.28 80.48<0 406.566>
LayerCount: 2
Fore
SplineSet
63.04 519 m 1xb4
 127.48 519 l 1
 142.76 449.04 l 1
 142.76 0 l 1xac
 63.04 0 l 1
 63.04 519 l 1xb4
125.72 410.24 m 1
 136.28 462.24 190.96 527 285.6 527 c 0
 413.8 527 475.76 436.56 475.76 324.92 c 1
 475.76 0 l 1
 395.28 0 l 1
 395.28 321.48 l 2
 395.28 408.96 347.96 460.36 266.4 460.36 c 0xcc
 170.6 460.36 130.24 383.6 130.24 308.32 c 1
 125.72 410.24 l 1
EndSplineSet
EndChar

StartChar: o
Encoding: 111 111 46
Width: 578
VWidth: 1048
Flags: W
HStem: -8 65.28<207.579 366.459> 461.72 65.28<210.269 366.482>
VStem: 55.04 78.72<142.921 372.762> 444.64 78.72<146.239 372.911>
LayerCount: 2
Fore
SplineSet
133.76 257.52 m 0
 133.76 124.48 196.64 57.28 287.2 57.28 c 0
 378 57.28 444.64 124.84 444.64 258 c 0
 444.64 391.16 378 461.72 287.2 461.72 c 0
 196.76 461.72 133.76 390.68 133.76 257.52 c 0
55.04 260.76 m 0
 55.04 428.36 149.32 527 287.2 527 c 0
 424.72 527 523.36 428 523.36 261 c 0
 523.36 93.88 424.6 -8 287.2 -8 c 0
 157.84 -8 55.04 93.64 55.04 260.76 c 0
EndSplineSet
EndChar

StartChar: p
Encoding: 112 112 47
Width: 600
VWidth: 1048
Flags: W
HStem: 23.6 32.52<228.425 362.47> 387.92 128.32<244.757 375.853>
VStem: 437.52 63.2<179.399 320.026>
LayerCount: 2
Fore
SplineSet
142.32 49.12 m 1
 156.4 13.04 203.04 56.12 286.64 56.12 c 1
 398.4 56.12 500.72 143.24 500.72 284.04 c 1
 500.72 442.44 429.6 516.24 308.16 516.24 c 1
 206.96 516.24 155.04 368.56 141.84 320.16 c 1
 148 259.44 l 1
 163.84 327.2 221.04 387.92 298.48 387.92 c 1
 387.36 387.92 437.52 329.84 437.52 201.36 c 1
 437.52 84.32 381.2 23.6 298.48 23.6 c 1
 230.72 23.6 181.44 61.44 165.6 113.36 c 1
 142.32 49.12 l 1
98.32 -150.08 m 1
 164.4 -143.36 l 1
 165.72 -150.2 169.8 390.32 179.04 390.32 c 1
 189.48 390.32 178.48 475.84 178.48 488.8 c 1
 178.48 501.64 123.88 508.84 114.4 508.84 c 1
 103.96 508.84 98.32 -162.56 98.32 -150.08 c 1
EndSplineSet
EndChar

StartChar: q
Encoding: 113 113 48
Width: 598
VWidth: 1048
Flags: W
HStem: -36.24 138.12<244.948 394.293> 466.2 53.68<234.786 383.574>
VStem: 98.24 80.48<177.888 402.046> 389.44 110.6<198.055 425.88>
LayerCount: 2
Fore
SplineSet
455.92 42.08 m 1
 441.84 6 379.84 -36.24 296.24 -36.24 c 1
 184.48 -36.24 98.24 132.56 98.24 273.36 c 1
 98.24 431.76 170.68 519.88 292.12 519.88 c 1
 393.32 519.88 458.56 446.84 471.76 398.44 c 1
 465.6 337.72 l 1
 449.76 405.48 392.56 466.2 315.12 466.2 c 1
 226.24 466.2 178.72 415.16 178.72 286.68 c 1
 178.72 169.64 232.4 101.88 315.12 101.88 c 1
 382.88 101.88 432.16 139.72 448 191.64 c 1
 455.92 42.08 l 1
500.04 -157.12 m 1
 500.04 -168.88 427.84 -176.08 416.68 -176.08 c 1
 399.88 -176.08 389.44 382.08 389.44 403.92 c 1
 389.44 425.88 414.96 513.8 429.72 513.8 c 1
 443.28 513.8 500.28 505.28 500.28 491.12 c 1
 500.04 -157.12 l 1
EndSplineSet
EndChar

StartChar: r
Encoding: 114 114 49
Width: 367
VWidth: 1048
Flags: W
HStem: 0 21G<84.88 164.48> 457.24 70.64<207.519 339.12> 457.24 60.96<286.429 339.12>
VStem: 84.88 79.6<0 452.602> 84.88 56.92<373.6 458.381 481.575 519.88>
LayerCount: 2
Fore
SplineSet
285.04 527.88 m 1xc8
 314.96 527.88 326.8 525.24 351.44 518.2 c 1xa8
 339.12 457.24 l 1
 308.6 457.24 l 1
 210 457.24 165.68 421.8 141.76 337.72 c 1
 141.8 373.6 l 1
 150.6 462.48 190 527.88 285.04 527.88 c 1xc8
84.88 519.88 m 1
 148.48 519.88 l 1
 164.48 398 l 1
 164.48 0 l 1
 84.88 0 l 1x90
 84.88 519.88 l 1
EndSplineSet
EndChar

StartChar: s
Encoding: 115 115 50
Width: 470
VWidth: 1048
Flags: W
VStem: 64.56 337.6
LayerCount: 2
Fore
SplineSet
64.56 130.12 m 1
 75.36 130.12 126.64 161.44 132.4 153.88 c 1
 157.92 118.68 184 90.24 250.88 90.24 c 1
 322.32 94.32 350.56 124.76 344.32 174.04 c 1
 338.56 217.16 304.32 238.92 254.16 245.52 c 1
 254.16 241.68 172.96 257.24 179.92 255.92 c 0
 108.64 273.52 75.68 319.2 75.68 380.8 c 1
 89.72 444.68 160.12 490.76 261.32 481.04 c 1
 326.44 470.24 364.76 437.28 393.52 388 c 1
 379.6 388 330 357.76 324.96 364.48 c 1
 299.44 397.04 269.44 428.96 221.92 428.96 c 1
 164.2 423.68 125.72 394.24 132.32 354.64 c 1
 139.16 316.8 163.12 293.92 208.88 286.56 c 1
 208.88 290.28 292.96 274.68 286.24 275.88 c 1
 352.24 259.16 402.16 219.52 402.16 145.6 c 1
 388 63.52 312.84 27.36 213.28 36.96 c 1
 133.2 46.08 85.36 83.48 64.56 130.12 c 1
EndSplineSet
EndChar

StartChar: t
Encoding: 116 116 51
Width: 420
VWidth: 1048
Flags: W
HStem: -7.12 63.04<245.686 355.44> 0.36 55.56<286.278 355.44> 454.6 65.28<52.56 361.68>
VStem: 152.88 79.6<69.0706 635>
LayerCount: 2
Fore
SplineSet
284.96 -7.12 m 1xb0
 193.24 -7.12 152.88 41.8 152.88 124.56 c 1
 152.88 635 l 1
 232.48 686 l 1
 232.48 123.64 l 1
 232.48 73.84 252.28 55.92 304.72 55.92 c 1
 355.44 55.92 l 1xb0
 364.16 0.36 l 1x70
 335.64 -3.88 313.16 -7.12 284.96 -7.12 c 1xb0
52.56 454.6 m 1
 52.56 519.88 l 1
 361.68 519.88 l 1
 361.68 454.6 l 1
 52.56 454.6 l 1
EndSplineSet
EndChar

StartChar: u
Encoding: 117 117 52
Width: 544
VWidth: 1048
Flags: W
HStem: -8 66.64<187.566 336.751> 0 21G<406.589 475.28> 499 20G<62.56 142.16 394.8 475.28>
VStem: 62.56 79.6<107.261 519> 394.8 80.48<44.7736 83.2 124.04 519> 403.68 8.64<129.8 197.612> 410.32 64.96<0 38.4264>
LayerCount: 2
Fore
SplineSet
475.28 0 m 1x72
 410.32 0 l 1x72
 394.8 83.2 l 1
 394.8 519 l 1
 475.28 519 l 1x78
 475.28 0 l 1x72
412.32 124.04 m 1xb4
 386.8 50.56 345.24 -8 251.68 -8 c 0
 123.48 -8 62.56 83.32 62.56 194.96 c 1
 62.56 519 l 1
 142.16 519 l 1
 142.16 197.92 l 2
 142.16 109.96 180.92 58.64 262.24 58.64 c 0
 356.04 58.64 403.68 129.8 403.68 212.72 c 1
 412.32 124.04 l 1xb4
EndSplineSet
EndChar

StartChar: v
Encoding: 118 118 53
Width: 556
VWidth: 1048
Flags: W
HStem: 0 21G<226.05 335.719> 499 20G<35.68 129.463 426.778 520.32>
LayerCount: 2
Fore
SplineSet
256.56 0 m 1
 433.6 519 l 1
 520.32 519 l 1
 328.32 0 l 1
 256.56 0 l 1
35.68 519 m 1
 122.4 519 l 1
 305.68 0 l 1
 233.68 0 l 1
 35.68 519 l 1
EndSplineSet
EndChar

StartChar: w
Encoding: 119 119 54
Width: 751
VWidth: 1048
Flags: W
HStem: 0 21G<150.5 266.122 479.186 594.731> 499 20G<34.24 118.957 323.099 428.593 630.734 716.76>
VStem: 34.24 80.52<488.234 519> 635.24 81.52<489.689 519>
LayerCount: 2
Fore
SplineSet
553.16 0 m 1
 484.16 0 l 1
 355.08 519 l 1
 423.6 519 l 1
 553.16 0 l 1
716.76 519 m 1
 589.84 0 l 1
 518.32 0 l 1
 635.24 519 l 1
 716.76 519 l 1
190.84 0 m 1
 328.4 519 l 1
 397.92 519 l 1
 260.84 0 l 1
 190.84 0 l 1
34.24 519 m 1
 114.76 519 l 1
 223.68 0 l 1
 155.16 0 l 1
 34.24 519 l 1
EndSplineSet
EndChar

StartChar: x
Encoding: 120 120 55
Width: 516
VWidth: 1048
Flags: W
HStem: 0 21G<25.32 136.733 387.156 497.96> 499 20G<25.32 136.887 386.958 497.96>
LayerCount: 2
Fore
SplineSet
25.32 519 m 1
 123.48 519 l 1
 262.32 311.88 l 1
 400.28 519 l 1
 497.96 519 l 1
 311.88 260 l 1
 497.96 0 l 1
 400.28 0 l 1
 262.56 209.88 l 1
 123.48 0 l 1
 25.32 0 l 1
 212.4 260 l 1
 25.32 519 l 1
EndSplineSet
EndChar

StartChar: y
Encoding: 121 121 56
Width: 555
VWidth: 1048
Flags: W
HStem: 449.2 20G<72.72 152.022>
LayerCount: 2
Fore
SplineSet
153.36 -192 m 1
 242.4 28.96 l 1
 72.72 467.88 l 1
 144 469.2 l 1
 273.04 147.48 l 1
 294.72 135.32 l 1
 320.32 181.08 l 1
 410.48 433.68 l 1
 484.4 433.68 l 1
 234.48 -192 l 1
 153.36 -192 l 1
EndSplineSet
EndChar

StartChar: z
Encoding: 122 122 57
Width: 518
VWidth: 1048
Flags: W
HStem: 0 65.28<149.76 459.44> 451.08 68.8<61.44 453.44>
LayerCount: 2
Fore
SplineSet
362.24 451.08 m 1
 453.44 451.08 l 1
 149.76 65.28 l 1
 58.56 65.28 l 1
 362.24 451.08 l 1
58.56 65.28 m 1
 459.44 65.28 l 1
 459.44 0 l 1
 58.56 0 l 1
 58.56 65.28 l 1
61.44 519.88 m 1
 453.44 519.88 l 1
 453.44 451.08 l 1
 61.44 451.08 l 1
 61.44 519.88 l 1
EndSplineSet
EndChar

StartChar: braceleft
Encoding: 123 123 58
Width: 372
VWidth: 1048
Flags: W
HStem: -69.52 66.56<229.717 324.72> 343.24 66.16<48 95.0493> 752.44 65.68<237.091 324.72>
VStem: 119 80.48<29.5531 318.458 428.792 717.573>
LayerCount: 2
Fore
SplineSet
119 634.08 m 1
 119 755.08 193.2 818.12 324.72 818.12 c 1
 324.72 752.44 l 1
 237.56 752.44 199.48 723.64 199.48 635.04 c 0
 199.48 513 l 1
 199.48 431 155.12 392.48 118.8 376 c 1
 153.36 363.76 199.48 330.04 199.48 246.04 c 1
 199.48 112.44 l 1
 199.48 15.04 237.56 -2.96 324.72 -2.96 c 1
 324.72 -69.52 l 1
 187.04 -69.52 119 -17.6 119 113.4 c 0
 119 153.4 119 196.24 119 270.24 c 17
 119 308.24 81.2 343.24 48 343.24 c 9
 48 409.4 l 1
 82.2 409.4 119 434.4 119 480.4 c 9
 119 634.08 l 1
EndSplineSet
EndChar

StartChar: bar
Encoding: 124 124 59
Width: 241
VWidth: 1048
Flags: W
VStem: 77 80.48<-66 819>
LayerCount: 2
Fore
SplineSet
77 819 m 1
 157.48 819 l 1
 157.48 -66 l 1
 77 -66 l 1
 77 819 l 1
EndSplineSet
EndChar

StartChar: braceright
Encoding: 125 125 60
Width: 372
VWidth: 1048
Flags: W
HStem: -69.52 66.16<48 135.629> 343.6 66.16<278.134 324.72> 751.08 67.04<48 143.003>
VStem: 173.24 80.48<31.8031 324.208 434.479 719.047>
LayerCount: 2
Fore
SplineSet
253.72 114.52 m 1
 253.72 -6.48 179.52 -69.52 48 -69.52 c 1
 48 -3.36 l 1
 135.16 -3.36 173.24 25.92 173.24 114.52 c 0
 173.24 240 l 1
 173.24 322 217.6 360.52 253.92 377 c 1
 219.36 389.24 173.24 430 173.24 514 c 1
 173.24 635.2 l 1
 173.24 732.6 135.16 751.08 48 751.08 c 1
 48 818.12 l 1
 185.68 818.12 253.72 766.2 253.72 635.2 c 0
 253.72 595.2 253.72 556.76 253.72 482.76 c 17
 253.72 444.76 292.72 409.76 324.72 409.76 c 9
 324.72 343.6 l 1
 291.72 343.6 253.72 318.6 253.72 272.6 c 9
 253.72 114.52 l 1
EndSplineSet
EndChar

StartChar: asciitilde
Encoding: 126 126 61
Width: 669
VWidth: 1048
Flags: W
HStem: 225 66<378.297 484.61> 321 65<179 294.228>
LayerCount: 2
Fore
SplineSet
77 265 m 1
 77 265 117 386 249 386 c 0
 324 386 368 291 439 291 c 0
 497 291 525 384 525 384 c 1
 585 343 l 25
 585 343 537 225 431 225 c 0
 348 225 302 321 237 321 c 0
 162 321 128 225 128 225 c 1
 77 265 l 1
EndSplineSet
EndChar

StartChar: exclam
Encoding: 33 33 62
Width: 295
VWidth: 1048
Flags: W
HStem: 22.24 163<102.276 173.17>
VStem: 75.56 121.84<51.1501 159.98> 88.64 89.68<384.715 475.685>
LayerCount: 2
Fore
SplineSet
88.64 637.88 m 1xa0
 88.64 642.68 171.8 646.64 176.6 646.64 c 1
 181.4 646.64 178.32 227.32 178.32 222.52 c 1
 178.32 217.72 109.24 213.76 104.44 213.76 c 1
 99.64 213.76 88.64 633.08 88.64 637.88 c 1xa0
75.56 131.56 m 1xc0
 75.56 160.6 113.08 185.24 145.64 185.24 c 1
 178.2 185.24 197.4 104.08 197.4 75.04 c 1
 197.4 46 162.84 22.24 130.28 22.24 c 1
 97.72 22.24 75.56 102.52 75.56 131.56 c 1xc0
EndSplineSet
EndChar

StartChar: quotedbl
Encoding: 34 34 63
Width: 426
VWidth: 1048
Flags: W
HStem: 520.84 248.04
VStem: 69.84 51.2<549.76 612.584> 76.72 61.44<648.216 743.334> 293.48 51.2<549.76 612.584> 300.36 61.44<648.216 743.334>
LayerCount: 2
Fore
SplineSet
300.36 768.88 m 1x88
 361.8 739.96 l 1x88
 344.68 520.84 l 1
 293.48 549.76 l 1x90
 300.36 768.88 l 1x88
76.72 768.88 m 1xa0
 138.16 739.96 l 1xa0
 121.04 520.84 l 1
 69.84 549.76 l 1xc0
 76.72 768.88 l 1xa0
EndSplineSet
EndChar

StartChar: numbersign
Encoding: 35 35 64
Width: 715
VWidth: 1048
Flags: W
HStem: 0 21G<93 181.435 311.96 400.395> 207.08 65.28<77 614.76> 455.64 65.28<77 614.76>
LayerCount: 2
Fore
SplineSet
93 0 m 1
 297 724 l 1
 379.8 724 l 1
 175.8 0 l 1
 93 0 l 1
311.96 0 m 1
 515.96 724 l 1
 598.76 724 l 1
 394.76 0 l 1
 311.96 0 l 1
77 272.36 m 1
 614.76 272.36 l 1
 614.76 207.08 l 1
 77 207.08 l 1
 77 272.36 l 1
77 520.92 m 1
 614.76 520.92 l 1
 614.76 455.64 l 1
 77 455.64 l 1
 77 520.92 l 1
EndSplineSet
EndChar

StartChar: dollar
Encoding: 36 36 65
Width: 610
VWidth: 1048
Flags: W
HStem: -7.12 64.88<208.325 416.355> 650.12 65.76<213.601 410.394>
VStem: 83.28 78.24<451.201 602> 275.16 79.6<-139 863> 476.28 78.72<111.86 258.192>
LayerCount: 2
Fore
SplineSet
275.16 863 m 1
 354.76 863 l 1
 354.76 -139 l 1
 275.16 -139 l 1
 275.16 863 l 1
313.6 715.88 m 1
 413.84 715.88 493.16 675.28 541.36 591.6 c 1
 483.96 554.48 l 1
 446.96 619.84 393.72 650.12 308.72 650.12 c 1
 201.6 650.12 161.52 594.84 161.52 533.44 c 1
 161.52 454.24 191.92 417.88 294.84 396.72 c 1
 367.88 381.36 l 1
 490.84 355.24 555 289 555 180.44 c 1
 555 66.92 454.64 -7.12 314.76 -7.12 c 1
 204.76 -7.12 115.44 26.52 61.12 133.4 c 1
 122.88 166.84 l 1
 156.64 89.52 233.6 57.76 314.76 57.76 c 1
 421.72 57.76 476.28 107.12 476.28 180.04 c 1
 476.28 266 428.4 297.56 335.48 316.32 c 1
 267.72 329.96 l 0
 143.8 352.84 83.28 425.56 83.28 532.2 c 1
 83.28 639.72 177.36 715.88 313.6 715.88 c 1
EndSplineSet
EndChar

StartChar: percent
Encoding: 37 37 66
Width: 792
VWidth: 1048
Flags: W
HStem: -8 69.6<515.067 615.563> 0 21G<140.4 239.025> 251.36 69.6<515.618 612.947> 386.04 69.6<162.107 262.603> 645.4 69.6<162.658 259.965> 687 20G<539.307 636.96>
VStem: 64 77.6<475.492 625.048> 283.28 77.6<476.361 622.53> 416.96 77.6<81.4522 231.008> 636.24 77.6<82.0955 228.291>
LayerCount: 2
Fore
SplineSet
564.52 251.36 m 0x33c0
 520.96 251.36 494.56 217.32 494.56 154.48 c 0
 494.56 92.64 520.84 61.6 565.4 61.6 c 0
 609.08 61.6 636.24 92.64 636.24 154.48 c 0
 636.24 216.32 608.08 251.36 564.52 251.36 c 0x33c0
565.4 320.96 m 24
 652.88 320.96 713.84 255 713.84 156.48 c 0
 713.84 58.72 652.76 -8 565.4 -8 c 24xb3c0
 478.04 -8 416.96 58.84 416.96 156.48 c 0
 416.96 255 478.04 320.96 565.4 320.96 c 24
211.56 645.4 m 0x3bc0
 168 645.4 141.6 611.36 141.6 548.52 c 0
 141.6 486.68 167.88 455.64 212.44 455.64 c 0
 256.12 455.64 283.28 487.56 283.28 549.4 c 0
 283.28 611.24 255.12 645.4 211.56 645.4 c 0x3bc0
212.44 715 m 24
 299.8 715 360.88 649.04 360.88 550.52 c 0
 360.88 452.88 299.8 386.04 212.44 386.04 c 24
 125.08 386.04 64 452.88 64 550.52 c 0
 64 649.04 125.08 715 212.44 715 c 24
140.4 0 m 1x77c0
 550.92 707 l 1
 636.96 707 l 1
 227.44 0 l 1
 140.4 0 l 1x77c0
EndSplineSet
EndChar

StartChar: ampersand
Encoding: 38 38 67
Width: 689
VWidth: 1048
Flags: W
HStem: 0 21G<528.387 632.6> 44.96 56.2<232.56 406.917> 367.76 90.72<231.053 320.12> 642.6 65.28<204.68 532.64>
VStem: 119.36 5.4<223.951 313.376>
LayerCount: 2
Fore
SplineSet
127.4 707.88 m 1
 532.64 707.88 l 1
 532.64 642.6 l 1
 204.68 642.6 l 1
 632.6 0 l 1
 541.32 0 l 1
 127.4 640.12 l 1
 127.4 707.88 l 1
587.92 293.04 m 1
 587.92 133.76 479.68 44.96 335.36 44.96 c 1
 202.48 44.96 124.76 125.92 124.76 262.32 c 1
 124.76 363.52 202.2 458.48 320.12 458.48 c 1
 320.12 438.08 333.36 367.76 311.16 367.76 c 1
 195.12 367.76 119.36 317.16 119.36 238.44 c 1
 119.36 150.84 182 101.16 304.92 101.16 c 1
 423.72 101.16 502.72 166.12 502.72 299.88 c 1
 490.48 299.88 485.08 417.28 484.96 408.28 c 1
 484.96 398.32 555.64 392.56 565.48 392.56 c 1
 579.04 392.56 587.92 276.24 587.92 293.04 c 1
EndSplineSet
EndChar

StartChar: quotesingle
Encoding: 39 39 68
Width: 141
VWidth: 1048
Flags: W
HStem: 527.88 241<40.96 100.32>
VStem: 32 77.28<576.08 768.88> 40.96 59.36<527.88 720.68>
LayerCount: 2
Fore
SplineSet
109.28 768.88 m 1xc0
 100.32 527.88 l 1
 40.96 527.88 l 1xa0
 32 768.88 l 1
 109.28 768.88 l 1xc0
EndSplineSet
EndChar

StartChar: parenleft
Encoding: 40 40 69
Width: 355
VWidth: 1048
Flags: W
VStem: 64 80.12<198.577 542.528>
LayerCount: 2
Fore
SplineSet
236 800 m 1
 323.12 800 l 1
 240.12 739 144.12 598 144.12 368 c 0
 144.12 139 248.12 7 323.12 -59 c 1
 231 -59 l 1
 126 26 64 191 64 368 c 0
 64 563 124 709 236 800 c 1
EndSplineSet
EndChar

StartChar: parenright
Encoding: 41 41 70
Width: 355
VWidth: 1048
Flags: W
VStem: 211 80.36<198.472 542.423>
LayerCount: 2
Fore
SplineSet
119.36 -59 m 1
 32 -59 l 1
 115 2 211 143 211 373 c 0
 211 602 107 734 32 800 c 1
 124.36 800 l 1
 229.36 715 291.36 550 291.36 373 c 0
 291.36 178 231.36 32 119.36 -59 c 1
EndSplineSet
EndChar

StartChar: asterisk
Encoding: 42 42 71
Width: 550
VWidth: 1048
Flags: W
HStem: 687 20G<89.9683 157.875 368.75 436.349>
VStem: 230 66<657.338 806>
LayerCount: 2
Fore
SplineSet
129 488 m 1
 188 573 l 1
 247 633 l 1
 280 608 l 1
 243 535 l 1
 182 451 l 1
 129 488 l 1
397 488 m 1
 344 451 l 1
 284 535 l 1
 247 608 l 1
 280 633 l 1
 338 573 l 1
 397 488 l 1
96 707 m 1
 195 675 l 1
 269 638 l 1
 257 599 l 1
 175 612 l 1
 77 644 l 1
 96 707 l 1
430 707 m 1
 450 644 l 1
 351 612 l 1
 269 599 l 1
 257 638 l 1
 332 675 l 1
 430 707 l 1
230 806 m 1
 296 806 l 1
 296 702 l 1
 284 621 l 1
 243 621 l 1
 230 702 l 1
 230 806 l 1
EndSplineSet
EndChar

StartChar: plus
Encoding: 43 43 72
Width: 598
VWidth: 1048
Flags: W
HStem: 249.32 69.68<77 498.92> 477.6 20G<250.36 322.92>
VStem: 250.36 72.56<71.6 497.6>
LayerCount: 2
Fore
SplineSet
250.36 497.6 m 1
 322.92 497.6 l 1
 322.92 71.6 l 1
 250.36 71.6 l 1
 250.36 497.6 l 1
77 319 m 1
 498.92 319 l 1
 498.92 249.32 l 1
 77 249.32 l 1
 77 319 l 1
EndSplineSet
EndChar

StartChar: comma
Encoding: 44 44 73
Width: 238
VWidth: 1048
Flags: W
HStem: -144 222
VStem: 41.2 128.08
LayerCount: 2
Fore
SplineSet
116.48 78 m 1
 169.28 51.36 l 1
 87.36 -144 l 1
 41.2 -117.36 l 1
 116.48 78 l 1
EndSplineSet
EndChar

StartChar: hyphen
Encoding: 45 45 74
Width: 454
VWidth: 1048
Flags: W
HStem: 249.32 70.16<77 379.68>
VStem: 77 302.68<249.32 319.48>
LayerCount: 2
Fore
SplineSet
77 319.48 m 1
 379.68 319.48 l 1
 379.68 249.32 l 1
 77 249.32 l 1
 77 319.48 l 1
EndSplineSet
EndChar

StartChar: period
Encoding: 46 46 75
Width: 249
VWidth: 1048
Flags: W
HStem: -8 124<74.4393 170.302>
VStem: 60.56 124<6.10855 101.534>
LayerCount: 2
Fore
SplineSet
60.56 53.56 m 0
 60.56 87.4 84.76 116 122.12 116 c 0
 159.48 116 184.56 87.4 184.56 53.56 c 0
 184.56 19.72 159.48 -8 122.12 -8 c 0
 84.76 -8 60.56 19.72 60.56 53.56 c 0
EndSplineSet
EndChar

StartChar: slash
Encoding: 47 47 76
Width: 422
VWidth: 1048
Flags: W
HStem: 748.88 20G<333.507 422.08>
LayerCount: 2
Fore
SplineSet
1 -34.12 m 1
 342 768.88 l 1
 422.08 768.88 l 1
 81.08 -34.12 l 1
 1 -34.12 l 1
EndSplineSet
EndChar

StartChar: zero
Encoding: 48 48 77
Width: 555
VWidth: 1048
Flags: W
HStem: -7.24 64.8<199.42 347.219> 650.2 64.8<198.685 353.432>
VStem: 35.12 80.48<176.153 534.512> 438.04 81.36<180.74 534.393>
LayerCount: 2
Fore
SplineSet
115.6 357.895351467 m 0
 115.6 161.811615053 164.920820834 57.56 274.653820161 57.56 c 0
 388.136025258 57.56 438.04 170.225690078 438.04 359.941479183 c 0
 438.04 546.428346594 390.226309128 650.2 275.683574815 650.2 c 0
 162.154718529 650.2 115.6 548.449180301 115.6 357.895351467 c 0
35.12 356.594955756 m 0
 35.12 588.927119469 110.320880383 715 275.732439658 715 c 0
 442.07567913 715 519.4 587.089324888 519.4 359.353567493 c 0
 519.4 129.917795551 441.244190148 -7.24 274.777183356 -7.24 c 0
 113.802294732 -7.24 35.12 120.792423078 35.12 356.594955756 c 0
EndSplineSet
EndChar

StartChar: one
Encoding: 49 49 78
Width: 555
VWidth: 1048
Flags: W
HStem: 0 69.28<76.96 488.72> 505.16 21G<58.96 91.0518> 687 20G<216.039 337.96>
VStem: 257.48 80.48<0 628.88>
LayerCount: 2
Fore
SplineSet
76.96 69.28 m 1
 488.72 69.28 l 1
 488.72 0 l 1
 76.96 0 l 1
 76.96 69.28 l 1
257.48 0 m 1
 257.48 628.88 l 1
 58.96 505.16 l 1
 58.96 587.08 l 1
 247.48 707 l 1
 337.96 707 l 1
 337.96 0 l 1
 257.48 0 l 1
EndSplineSet
EndChar

StartChar: two
Encoding: 50 50 79
Width: 555
VWidth: 1048
Flags: W
HStem: 0 72.8<168.64 483.28> 649.72 66.16<172.792 339.542>
VStem: 395.76 80.48<420.087 594.756>
LayerCount: 2
Fore
SplineSet
66.92 74.36 m 1
 307.72 328.64 l 0
 372.64 401.6 395.76 447.72 395.76 519.72 c 0
 395.76 596.88 340.2 649.72 258.32 649.72 c 0
 192 649.72 146.8 617.36 107.12 568.88 c 1
 59.12 613.68 l 1
 108.92 684.72 177.96 715.88 257.28 715.88 c 0
 393.28 715.88 476.24 628.56 476.24 516.08 c 0
 476.24 423.08 442.52 368.96 370.4 291.68 c 0
 168.64 72.8 l 1
 483.4 72.8 l 1
 483.28 0 l 1
 66.92 0 l 1
 66.92 74.36 l 1
EndSplineSet
EndChar

StartChar: three
Encoding: 51 51 80
Width: 555
VWidth: 1048
Flags: W
HStem: -7.12 65.76<161.763 355.859> 364.56 64.8<276.2 358.017> 642.12 65.76<76.2 380.12>
VStem: 423.2 78.72<123.891 304.253>
LayerCount: 2
Fore
SplineSet
76.2 707.88 m 1
 473.72 707.88 l 1
 473.72 644.4 l 1
 276.2 429.36 l 1
 398.56 429.36 501.92 355.88 501.92 217.28 c 0
 501.92 81.4 410.96 -7.12 259.76 -7.12 c 0
 146.56 -7.12 91.8 36.68 41 107.32 c 1
 92.52 148.36 l 1
 122.04 101.64 167.56 58.64 254.24 58.64 c 0
 356.56 58.64 423.2 101.08 423.2 219.28 c 0
 423.2 315.4 366.64 364.56 259.24 364.56 c 2
 188.92 364.56 l 1
 190.68 430.44 l 1
 380.12 642.12 l 1
 76.2 642.12 l 1
 76.2 707.88 l 1
EndSplineSet
EndChar

StartChar: four
Encoding: 52 52 81
Width: 555
VWidth: 1048
Flags: W
HStem: 0 21G<335.52 415.12> 164.72 70.16<135.88 517.28> 687.88 20G<295.443 390.16>
VStem: 335.52 79.6<0 389.76>
LayerCount: 2
Fore
SplineSet
306.08 707.88 m 1
 390.16 707.88 l 1
 135.88 234.88 l 1
 54.52 234.88 l 1
 306.08 707.88 l 1
54.52 234.88 m 1
 517.28 234.88 l 1
 517.28 164.72 l 1
 54.52 164.72 l 1
 54.52 234.88 l 1
335.52 389.76 m 1
 415.12 389.76 l 1
 415.12 0 l 1
 335.52 0 l 1
 335.52 389.76 l 1
EndSplineSet
EndChar

StartChar: five
Encoding: 53 53 82
Width: 555
VWidth: 1048
Flags: W
HStem: -7.12 65.28<157.456 343.143> 383.88 64.8<197.778 346.747> 635.96 71.04<181.32 460.48>
VStem: 416.6 78.72<130.328 314.609>
LayerCount: 2
Fore
SplineSet
285.8 448.68 m 1
 382.36 448.68 495.32 375.6 495.32 225.08 c 0
 495.32 78.4 388.04 -7.12 255.04 -7.12 c 1
 145.52 -7.12 81.64 39.76 45.56 92.2 c 1
 99.84 134.52 l 1
 132.08 85.28 182.12 58.16 254.32 58.16 c 1
 339.32 58.16 416.6 104.6 416.6 221.44 c 0
 416.6 327.96 356.16 383.88 257.04 383.88 c 1
 210.88 383.88 175.12 368.16 155.32 347.4 c 1
 137.32 350.04 l 1
 159.32 415.08 213.8 448.68 285.8 448.68 c 1
106.04 707 m 1
 181.32 707 l 1
 155.32 347.4 l 1
 80.04 347.4 l 1
 106.04 707 l 1
177.32 707 m 1
 460.48 707 l 1
 460.48 635.96 l 1
 155.52 635.96 l 1
 177.32 707 l 1
EndSplineSet
EndChar

StartChar: six
Encoding: 54 54 83
Width: 555
VWidth: 1048
Flags: W
HStem: -7.12 64.8<198.846 365.178> 414.56 63.96<201.819 366.513> 652.84 63.04<222.333 393.374>
VStem: 46 78.72<147.976 505.776> 437.8 80.48<139.54 337.594>
LayerCount: 2
Fore
SplineSet
284.64 414.56 m 0
 190.2 414.56 124.72 347.12 124.72 245.68 c 0
 124.72 124.88 182.28 57.68 284.16 57.68 c 0
 387.16 57.68 437.8 141.08 437.8 238.36 c 0
 437.8 341.44 385 414.56 284.64 414.56 c 0
305.64 715.88 m 1
 376.2 715.88 446.68 688.32 494.56 611.64 c 1
 447.44 577.16 l 1
 410.92 636.12 357.12 652.84 306.64 652.84 c 0
 182.64 652.84 121.72 543.92 121.72 385 c 1
 155.12 450.92 234.12 478.52 297.16 478.52 c 0
 425.28 478.52 518.28 393.44 518.28 238.6 c 0
 518.28 97.4 414.4 -7.12 283.92 -7.12 c 0
 130.36 -7.12 46 86.2 46 319.2 c 0
 46 592.56 149.04 715.88 305.64 715.88 c 1
EndSplineSet
EndChar

StartChar: seven
Encoding: 55 55 84
Width: 555
VWidth: 1048
Flags: W
HStem: 0 21G<140.6 229.635> 642.2 65.68<46 493.28>
LayerCount: 2
Fore
SplineSet
46 707.88 m 1
 493.28 707.88 l 1
 493.28 642.2 l 1
 46 642.2 l 1
 46 707.88 l 1
410.72 642.2 m 1
 493.28 642.2 l 1
 221.16 0 l 1
 140.6 0 l 1
 410.72 642.2 l 1
EndSplineSet
EndChar

StartChar: eight
Encoding: 56 56 85
Width: 555
VWidth: 1048
Flags: W
HStem: -7 65.68<186.525 372.112> 335.76 66.64<194.8 359.48> 344.92 48.56<162.84 390.56> 649.2 65.68<195.23 358.416>
VStem: 48 80.48<115.06 276.148> 64.24 79.6<449.174 598.804> 410.56 79.6<449.272 599.054> 426.8 80.48<110.684 271.32>
LayerCount: 2
Fore
SplineSet
276.76 335.76 m 0xd9
 185.8 335.76 128.48 282.84 128.48 200.48 c 0
 128.48 92.48 197.76 58.68 277 58.68 c 0
 359.28 58.68 426.8 89.12 426.8 192.48 c 0
 426.8 276.72 370.08 335.76 276.76 335.76 c 0xd9
276.76 649.2 m 0
 200.2 649.2 143.84 606.68 143.84 519.88 c 0
 143.84 446.28 194.8 402.4 276.64 402.4 c 0
 359.48 402.4 410.56 446.16 410.56 520.76 c 0xd6
 410.56 607.44 353.32 649.2 276.76 649.2 c 0
48 192.72 m 0xb9
 48 325.88 153.88 393.48 276.64 393.48 c 0
 399.4 393.48 507.28 325.88 507.28 192.72 c 0
 507.28 50.72 393.68 -7 276.64 -7 c 0
 159.72 -7 48 50.6 48 192.72 c 0xb9
64.24 521.36 m 0xb6
 64.24 655.12 160.8 714.88 276.64 714.88 c 0
 392.48 714.88 490.16 655 490.16 521.36 c 0
 490.16 408.52 390.56 344.92 276.64 344.92 c 0
 162.84 344.92 64.24 408.4 64.24 521.36 c 0xb6
EndSplineSet
EndChar

StartChar: nine
Encoding: 57 57 86
Width: 555
VWidth: 1048
Flags: W
HStem: -7.12 63.04<153.9 333.481> 229.4 64.8<197.368 361.649> 651.08 64.8<198.959 364.386>
VStem: 47.28 78.72<371.108 569.22> 439.08 78.72<212.373 556.564>
LayerCount: 2
Fore
SplineSet
279.16 294.2 m 0
 373.6 294.2 439.08 361.64 439.08 463.08 c 0
 439.08 583 381.52 651.08 279.64 651.08 c 0
 176.64 651.08 126 567.68 126 470.4 c 0
 126 367.32 178.8 294.2 279.16 294.2 c 0
250.32 -7.12 m 1
 168.48 -7.12 105.4 21.32 58.4 83.92 c 1
 103 122.8 l 1
 139.52 71.76 198.84 55.92 249.32 55.92 c 0
 373.32 55.92 433.28 157.8 440.32 323.76 c 1
 407.4 257.48 329.68 229.4 266.64 229.4 c 0
 138.52 229.4 47.28 315.32 47.28 470.16 c 0
 47.28 611.36 137.88 715.88 278.92 715.88 c 0
 431.76 715.88 517.8 613.52 517.8 389.56 c 0
 517.8 116.48 404.28 -7.12 250.32 -7.12 c 1
EndSplineSet
EndChar

StartChar: colon
Encoding: 58 58 87
Width: 316
VWidth: 1048
Flags: W
HStem: -8 124<109.879 205.742> 403 124<109.879 205.742>
VStem: 96 124<6.10855 101.534 417.109 512.534>
LayerCount: 2
Fore
SplineSet
96 464.56 m 0
 96 498.4 120.2 527 157.56 527 c 0
 194.92 527 220 498.4 220 464.56 c 0
 220 430.72 194.92 403 157.56 403 c 0
 120.2 403 96 430.72 96 464.56 c 0
96 53.56 m 0
 96 87.4 120.2 116 157.56 116 c 0
 194.92 116 220 87.4 220 53.56 c 0
 220 19.72 194.92 -8 157.56 -8 c 0
 120.2 -8 96 19.72 96 53.56 c 0
EndSplineSet
EndChar

StartChar: semicolon
Encoding: 59 59 88
Width: 276
VWidth: 1048
Flags: W
HStem: 366.64 79.84<98.8432 173.138>
VStem: 94.48 84.4<369.426 442.176>
LayerCount: 2
Fore
SplineSet
107.16 123.12 m 1
 107.16 127.92 174.48 131.88 179.28 131.88 c 1
 184.08 131.88 117.64 -67.44 117.64 -72.24 c 1
 117.64 -77.04 59.12 -81 54.32 -81 c 1
 49.52 -81 107.16 118.32 107.16 123.12 c 1
94.48 419.44 m 1
 94.48 448.48 104.16 446.48 136.72 446.48 c 1
 169.28 446.48 178.88 421.84 178.88 392.8 c 1
 178.88 363.76 166.16 366.64 133.6 366.64 c 1
 101.04 366.64 94.48 390.4 94.48 419.44 c 1
EndSplineSet
EndChar

StartChar: less
Encoding: 60 60 89
Width: 562
VWidth: 1048
Flags: W
HStem: 484 20G<430.807 486.632>
LayerCount: 2
Fore
SplineSet
62.08 328 m 1
 478.08 504 l 1
 506.08 438.52 l 1
 62.08 254.52 l 1
 62.08 328 l 1
62.08 302.48 m 1
 506.08 118.48 l 1
 478.08 53 l 1
 62.08 229 l 1
 62.08 302.48 l 1
EndSplineSet
EndChar

StartChar: equal
Encoding: 61 61 90
Width: 597
VWidth: 1048
Flags: W
HStem: 151.68 70.16<77 497> 349.36 71.04<77 497>
LayerCount: 2
Fore
SplineSet
77 420.4 m 1
 497 420.4 l 1
 497 349.36 l 1
 77 349.36 l 1
 77 420.4 l 1
77 221.84 m 1
 497 221.84 l 1
 497 151.68 l 1
 77 151.68 l 1
 77 221.84 l 1
EndSplineSet
EndChar

StartChar: greater
Encoding: 62 62 91
Width: 601
VWidth: 1048
Flags: W
HStem: 484 20G<82.4878 138.313>
LayerCount: 2
Fore
SplineSet
507.04 328 m 1
 507.04 254.52 l 1
 63.04 438.52 l 1
 91.04 504 l 1
 507.04 328 l 1
507.04 302.48 m 1
 507.04 229 l 1
 91.04 53 l 1
 63.04 118.48 l 1
 507.04 302.48 l 1
EndSplineSet
EndChar

StartChar: question
Encoding: 63 63 92
Width: 519
VWidth: 1048
Flags: W
HStem: 159.2 28.08<203.84 259.28> 521.76 21G<103.76 125.72> 588.64 72.08<154.745 318.914>
VStem: 160.24 159.28<75.3453 158.228>
LayerCount: 2
Fore
SplineSet
57.8 571 m 1
 93.88 616.28 148.88 660.72 237.28 660.72 c 1
 355.6 660.72 431.72 599.56 431.72 486.52 c 1
 430.84 395.48 350.32 342.24 291.84 296.48 c 0
 250.96 265.68 259.68 238.4 254.88 204.96 c 1
 250.08 190 261.44 178.56 259.28 166.24 c 1
 254.48 166.24 208.64 159.2 203.84 159.2 c 1
 195.52 178.56 203.36 195.28 198.56 211.12 c 1
 193.76 277.12 235.04 317.6 271.6 348.4 c 0
 312.56 382.72 364.4 419.68 359.6 474.24 c 1
 354.8 556.96 316 588.64 237.28 588.64 c 1
 179.68 588.64 145.28 567.52 106.16 521.76 c 1
 101.36 521.76 57.8 566.2 57.8 571 c 1
160.24 119.2 m 1
 164.32 155.92 192.48 187.28 239.56 187.28 c 1
 287.6 187.28 319.52 154.48 319.52 110.68 c 1
 319.52 71.32 293.96 40.72 253.72 35.32 c 0
 214.68 30.76 160.24 90.16 160.24 119.2 c 1
EndSplineSet
EndChar

StartChar: at
Encoding: 64 64 93
Width: 959
Flags: W
HStem: -96 69.28<367.324 647.243> 131 68.8<388.53 527.922> 508.2 68.8<413.423 560.088> 730.72 69.28<356.328 613.701>
VStem: 48 78.72<223.013 498.106> 264.4 79.08<246.756 428.914> 830.64 78.72<271.266 516.469>
LayerCount: 2
Fore
SplineSet
670.36 5.52 m 1
 670.36 -69.92 l 1
 615.92 -89.76 561.6 -96 492.6 -96 c 1
 243.6 -96 48 66.32 48 364 c 1
 48 650.8 266.96 800 485.2 800 c 1
 728.32 800 909.36 632.32 909.36 387.96 c 1
 909.36 284.28 872.2 196.04 816.52 139.72 c 1
 742.24 130.88 l 1
 572.2 228.88 l 1
 631.16 283.36 l 1
 771 200.28 l 1
 801.28 241.68 830.64 311.6 830.64 389.16 c 1
 830.64 601.8 678.2 730.72 485.2 730.72 c 1
 299.2 730.72 126.72 605.84 126.72 363.52 c 1
 126.72 133.12 281.24 -26.72 496.6 -26.72 c 1
 567.6 -26.72 614.16 -20.96 670.36 5.52 c 1
632.08 567 m 1
 693.36 567 l 1
 658.6 245 l 1
 579.96 242 l 1
 606.76 498 l 1
 632.08 567 l 1
665.12 370.12 m 1
 630.4 210.2 545.76 131 448.76 131 c 0
 343.64 131 264.4 205.4 264.4 320.6 c 0
 264.4 332.36 265.4 344.24 266.4 357 c 0
 280.28 482 374.36 577 489.36 577 c 0
 569.92 577 637.72 515.48 649.72 458.48 c 1
 665.12 370.12 l 1
486.32 508.2 m 0
 411.56 508.2 355.12 452.08 345.36 359 c 0
 344.36 347.36 343.48 336.72 343.48 326.08 c 0
 343.48 243.52 392.56 199.8 458.8 199.8 c 0
 539.96 199.8 582.36 265.84 592.24 358.24 c 0
 603.4 437.04 l 1
 583.92 481.24 536.96 508.2 486.32 508.2 c 0
EndSplineSet
EndChar

StartChar: gravecomb
Encoding: 768 768 95
Width: 0
VWidth: 1048
Flags: W
HStem: 744.04 185.96
VStem: -125.52 250.96
LayerCount: 2
Fore
SplineSet
91.08 744.04 m 1
 -125.52 862.4 l 1
 -80.6 930 l 1
 125.44 796.64 l 1
 91.08 744.04 l 1
EndSplineSet
EndChar

StartChar: acutecomb
Encoding: 769 769 96
Width: 0
VWidth: 1048
Flags: W
HStem: 744.04 185.96
VStem: -125.52 250.96
LayerCount: 2
Fore
SplineSet
-92.04 744.04 m 1
 -125.52 796.64 l 1
 79.64 930 l 1
 125.44 862.4 l 1
 -92.04 744.04 l 1
EndSplineSet
EndChar

StartChar: uni0302
Encoding: 770 770 97
Width: 0
VWidth: 1048
Flags: W
HStem: 743.08 186.92
VStem: -166.88 333.76
LayerCount: 2
Fore
SplineSet
-166.88 794.72 m 25
 -33 930 l 1
 33 930 l 1
 166.88 794.72 l 17
 123.96 743.08 l 1
 0 861.4 l 25
 -124.92 743.08 l 1
 -166.88 794.72 l 25
EndSplineSet
EndChar

StartChar: tildecomb
Encoding: 771 771 98
Width: 0
VWidth: 1048
Flags: W
HStem: 767.04 21G<-180.336 -150.1> 774 68.48<30.7524 124.484> 843.64 69.36<-124.346 -17.4083>
VStem: -206.68 56.28<799.851 817.361> 142.12 64.56<859.04 883.539>
LayerCount: 2
Fore
SplineSet
-206.68 804.64 m 1xb8
 -205.24 813.4 -178.96 913 -65.16 913 c 0
 -2 913 31.68 842.48 82.56 842.48 c 0
 137.68 842.48 141.64 913.36 142.12 917.32 c 1
 206.68 879.32 l 1
 204.64 868.04 176.36 774 81.28 774 c 0x78
 5.92 774 -13.08 843.64 -70 843.64 c 0
 -139.96 843.64 -149.8 771.72 -150.4 767.04 c 1
 -206.68 804.64 l 1xb8
EndSplineSet
EndChar

StartChar: uni030A
Encoding: 778 778 100
Width: 0
VWidth: 1048
Flags: W
HStem: 741.44 51.52<-40.4882 40.4882> 887.04 51.52<-40.4882 40.4882>
VStem: -98.56 51.64<799.889 880.111> 46.92 51.64<799.889 880.111>
LayerCount: 2
Fore
SplineSet
-46.92 840 m 0
 -46.92 811.6 -26.4 792.96 0 792.96 c 0
 26.4 792.96 46.92 811.6 46.92 840 c 0
 46.92 868.4 26.4 887.04 0 887.04 c 0
 -26.4 887.04 -46.92 868.4 -46.92 840 c 0
-98.56 840 m 0
 -98.56 896.96 -54.84 938.56 0 938.56 c 0
 54.84 938.56 98.56 896.96 98.56 840 c 0
 98.56 783.04 54.84 741.44 0 741.44 c 0
 -54.84 741.44 -98.56 783.04 -98.56 840 c 0
EndSplineSet
EndChar

StartChar: uni0308
Encoding: 776 776 101
Width: 0
VWidth: 1048
Flags: W
HStem: 802.96 108.08<-149.015 -61.7069 61.7069 149.015>
VStem: -160 108.96<813.627 900.373> 51.04 108.96<813.627 900.373>
LayerCount: 2
Fore
SplineSet
51.04 857 m 0
 51.04 887.08 75 911.04 105.08 911.04 c 0
 135.16 911.04 160 887.08 160 857 c 0
 160 826.92 135.16 802.96 105.08 802.96 c 0
 75 802.96 51.04 826.92 51.04 857 c 0
-160 857 m 0
 -160 887.08 -135.16 911.04 -105.08 911.04 c 0
 -75 911.04 -51.04 887.08 -51.04 857 c 0
 -51.04 826.92 -75 802.96 -105.08 802.96 c 0
 -135.16 802.96 -160 826.92 -160 857 c 0
EndSplineSet
EndChar

StartChar: dotlessi
Encoding: 305 305 116
Width: 311
VWidth: 1048
Flags: W
HStem: 0 21G<132.48 212.96> 453.72 65.28<30.08 154.16>
VStem: 132.48 80.48<0 453.72> 132.48 21.68<453.72 519>
LayerCount: 2
Fore
SplineSet
30.08 519 m 1xd0
 154.16 519 l 1
 154.16 453.72 l 1
 30.08 453.72 l 1
 30.08 519 l 1xd0
132.48 0 m 1xe0
 132.48 519 l 1xd0
 212.96 519 l 1
 212.96 0 l 1
 132.48 0 l 1xe0
EndSplineSet
EndChar

StartChar: sterling
Encoding: 163 163 153
Width: 604
Flags: W
HStem: 0 69.28<63.4 541.44> 312.12 69.28<34.56 427.56> 649.24 65.76<257.542 430.806>
VStem: 119 78.72<425.572 592.561> 193.52 78.72<174.741 309.692>
LayerCount: 2
Fore
SplineSet
34.56 381.4 m 1xe0
 427.56 381.4 l 1
 427.56 312.12 l 1
 34.56 312.12 l 1
 34.56 381.4 l 1xe0
63.4 69.28 m 1
 541.44 69.28 l 1
 541.44 0 l 1
 63.4 0 l 1
 63.4 69.28 l 1
119 524.24 m 1xf0
 119 615.6 189.72 715 340.92 715 c 0
 471.92 715 522.32 646.24 558.16 595.6 c 1
 501.4 552.84 l 0
 459.56 617.52 419.4 649.24 337.92 649.24 c 1
 266.04 649.24 197.72 601.56 197.72 523.52 c 0xf0
 197.72 413.52 272.24 370.04 272.24 264.04 c 0
 272.24 150.36 210.8 96.08 164 69.28 c 1
 63.4 69.28 l 1
 63.4 83.84 l 1
 63.4 83.84 193.52 118.16 193.52 267 c 0xe8
 193.52 353 119 417.24 119 524.24 c 1xf0
EndSplineSet
EndChar

StartChar: AE
Encoding: 198 198 154
Width: 918
VWidth: 1048
Flags: W
HStem: 0 21G<40 131.89> 37.92 66.16<546.12 852.68> 72.36 31.72<497.16 546.12> 161.92 139.4<224.96 441.84> 326.36 70.56<461.16 739.76> 568.48 66.16<505.2 862.04> 687 20G<365.562 429.453 441.84 546.12>
VStem: 441.84 104.28<104.08 161.92 301.32 326.36 396.92 568.48 634.64 707> 461.16 84.96<326.36 396.92> 497.16 48.96<72.36 104.08> 505.2 40.92<568.48 634.64>
LayerCount: 2
Fore
SplineSet
461.16 396.92 m 1x9e80
 739.76 396.92 l 1
 739.76 326.36 l 1
 461.16 326.36 l 1
 461.16 396.92 l 1x9e80
497.16 104.08 m 1xbe40
 852.68 104.08 l 1
 852.68 37.92 l 1
 497.16 37.92 l 1xde40
 497.16 104.08 l 1xbe40
505.2 634.64 m 1x9e20
 862.04 634.64 l 1
 862.04 568.48 l 1
 505.2 568.48 l 1
 505.2 634.64 l 1x9e20
441.84 707 m 1xbf
 546.12 707 l 1xbf
 546.12 72.36 l 1xbe40
 441.84 72.36 l 1
 441.84 707 l 1xbf
224.96 301.32 m 1
 441.84 301.32 l 1
 441.84 161.92 l 1
 224.96 161.92 l 1
 224.96 301.32 l 1
375.04 707 m 1
 426.48 707 l 1
 433.36 660.72 l 1
 122.48 0 l 1
 40 0 l 1
 375.04 707 l 1
EndSplineSet
EndChar

StartChar: Euro
Encoding: 8364 8364 155
Width: 733
Flags: W
HStem: -8 64<339.948 538.613> 235 64<32 423> 425 64<32 487> 651 64<334.99 530.978>
VStem: 134 72<258.49 422.227>
LayerCount: 2
Fore
SplineSet
32 299 m 1
 444 299 l 1
 423 235 l 1
 32 235 l 1
 32 299 l 1
32 489 m 1
 509 489 l 1
 487 425 l 1
 32 425 l 1
 32 489 l 1
436 715 m 1
 562 715 634 644 666 590 c 1
 609 557 l 1
 564 627 499 651 437 651 c 1
 291 651 206 542 206 360 c 1
 206 194 277 56 435 56 c 1
 532 56 582 94 629 162 c 1
 681 118 l 1
 628 46 564 -8 434 -8 c 1
 240 -8 134 157 134 362 c 0
 134 574 261 715 436 715 c 1
EndSplineSet
EndChar

StartChar: yen
Encoding: 165 165 156
Width: 635
VWidth: 1048
Flags: W
HStem: 0 21G<279.96 359.56> 135.8 65.76<117.32 521.84> 294.88 65.76<117.32 277.92 279.96 284.96 354.56 359.56 361.6 521.84> 687 20G<40.96 146.229 489.489 594.56>
VStem: 279.96 79.6<0 328.68>
LayerCount: 2
Fore
SplineSet
117.32 201.56 m 1
 521.84 201.56 l 1
 521.84 135.8 l 1
 117.32 135.8 l 1
 117.32 201.56 l 1
117.32 360.64 m 1
 521.84 360.64 l 1
 521.84 294.88 l 1
 117.32 294.88 l 1
 117.32 360.64 l 1
279.96 328.68 m 1
 359.56 328.68 l 1
 359.56 0 l 1
 279.96 0 l 1
 279.96 328.68 l 1
277.92 318.12 m 1
 500.96 707 l 1
 594.56 707 l 1
 354.56 316.68 l 1
 277.92 318.12 l 1
40.96 707 m 1
 134.56 707.24 l 1
 361.6 318.12 l 1
 284.96 316.68 l 1
 40.96 707 l 1
EndSplineSet
EndChar

StartChar: ae
Encoding: 230 230 157
Width: 873
Flags: W
HStem: -8 64.8<162.751 323.709 538.116 711.136> 239.12 65.36<164.139 389.76 469.36 744> 460.84 66.16<172.226 343.386 531.648 692.45>
VStem: 54.32 79.6<85.7629 210.49> 389.76 79.6<137.84 239.12 304.48 394.2> 744 75.08<304.48 404.509>
LayerCount: 2
Fore
SplineSet
616.08 461.72 m 1
 513.64 461.72 469.36 394.2 469.36 304.48 c 1
 744 304.48 l 1
 744 318.24 l 1
 744 412.04 692.28 461.72 616.08 461.72 c 1
619.36 527 m 0
 729.08 527 819.08 446.16 819.08 305.44 c 1
 819.08 278.44 816.84 257.88 806.32 239.12 c 1
 469.36 239.12 l 1
 469.36 137.84 516.64 56.8 617.28 56.8 c 0
 684.04 56.8 729.48 78.64 764.92 128.56 c 1
 814 84.44 l 1
 758.84 23.24 707.68 -8 615.52 -8 c 0
 475.92 -8 394.56 95.96 394.56 261 c 0
 394.56 423.68 472.08 527 619.36 527 c 0
133.92 148.8 m 0
 133.92 88.92 168.24 56.8 240.72 56.8 c 0
 323.16 56.8 387.84 107.6 389.76 207.08 c 1
 389.76 239.12 l 1
 283.2 239.12 l 2
 182.4 239.12 133.92 223.48 133.92 148.8 c 0
431.72 156.52 m 1
 427.2 55.08 326 -8 234.08 -8 c 0
 123.92 -8 54.32 51.88 54.32 147.84 c 0
 54.32 252.84 131 304.48 269.68 304.48 c 2
 389.76 304.48 l 1
 389.76 343.6 l 2
 389.76 424.48 335.16 460.84 260.32 460.84 c 0
 200.68 460.84 159.36 439.68 128.96 400.64 c 1
 81.36 439.76 l 1
 115.92 494.72 182.12 527 261.6 527 c 0
 372.88 527 452.76 471.84 452.88 332.84 c 2
 464.56 176.68 l 1
 431.72 156.52 l 1
EndSplineSet
EndChar

StartChar: eth
Encoding: 240 240 158
Width: 595
Flags: W
HStem: -8 64.8<216.802 380.677> 463.08 64.8<215.457 375.196> 687 28G<189.04 349.06 410.078 464.4>
VStem: 54.08 78.72<149.696 371.556> 462.24 78.72<149.201 391.537>
LayerCount: 2
Fore
SplineSet
194.2 607.52 m 1
 464.4 707 l 1
 464.4 646.64 l 1
 195.08 546.92 l 1
 194.2 607.52 l 1
132.8 265.28 m 0
 132.8 120.52 204.32 56.8 300.28 56.8 c 0
 393.48 56.8 462.24 128.32 462.24 254.76 c 0
 462.24 318.4 451.08 376.16 430.28 411.28 c 1
 390.32 445.2 340.44 463.08 296.04 463.08 c 0
 210.12 463.08 132.8 400.84 132.8 265.28 c 0
291.56 715 m 1
 406.56 641 540.96 495 540.96 259 c 1
 540.96 99 437.6 -8 299.52 -8 c 1
 157.32 -8 54.08 87 54.08 274 c 1
 54.08 412 149.6 527.88 282.6 527.88 c 1
 342.04 527.88 391.2 505.12 427.2 464.48 c 1
 389.08 555.4 273.16 672.12 189.04 715 c 1
 291.56 715 l 1
EndSplineSet
EndChar

StartChar: thorn
Encoding: 254 254 159
Width: 609
VWidth: 1048
Flags: W
HStem: 23.6 55.16<198.696 354.98> 387.04 53.68<207.752 363.115>
VStem: 428.32 79.6<113.888 313.026>
LayerCount: 2
Fore
SplineSet
97.48 -124.56 m 1
 97.48 -112.56 171.88 -105.72 182.56 -105.72 c 1
 199.84 -105.72 211.48 673.68 211.48 654.84 c 1
 211.48 634.8 136.24 622.08 119.2 622.08 c 1
 106.72 622.08 97.48 -124.56 97.48 -124.56 c 1
114.16 172.04 m 1
 128.24 135.96 198.16 78.76 297.6 78.76 c 1
 409.36 78.76 507.92 53.52 507.92 204 c 1
 507.92 372.08 394.88 440.72 285.76 440.72 c 1
 184.56 440.72 128.24 371.2 110.64 329.84 c 1
 137.04 268.24 l 1
 137.04 336.88 204.8 387.04 282.24 387.04 c 1
 371.12 387.04 428.32 331.6 428.32 203.12 c 1
 428.32 86.08 361.44 23.6 278.72 23.6 c 1
 203.04 23.6 137.04 66.72 137.04 137.12 c 1
 114.16 172.04 l 1
EndSplineSet
EndChar

StartChar: currency
Encoding: 164 164 160
Width: 654
Flags: W
HStem: -7 21G<82.4359 122 532 571.564> 22 65.76<247.506 406.494> 431.24 65.76<247.506 406.494> 508 20G<82.4359 122 532 571.564>
VStem: 95 65.76<176.342 343.381> 493.24 65.76<176.387 343.425>
LayerCount: 2
Fore
SplineSet
477.88 157.88 m 1
 596.88 38.88 l 1
 552 -7 l 1
 433 112 l 1
 477.88 157.88 l 1
221 112 m 1
 102 -7 l 1
 57.12 38.88 l 1
 176.12 156.88 l 1
 221 112 l 1
176.12 363.12 m 1
 57.12 482.12 l 1
 102 528 l 1
 221 409 l 1
 176.12 363.12 l 1
432 408 m 1
 552 528 l 1
 596.88 482.12 l 1
 476.88 363.12 l 1
 432 408 l 1
160.76 259.88 m 0
 160.76 165.12 235.12 87.76 327 87.76 c 0
 418.88 87.76 493.24 165.24 493.24 260 c 0
 493.24 354.76 418.88 431.24 327 431.24 c 0
 235.12 431.24 160.76 354.64 160.76 259.88 c 0
95 260 m 0
 95 391 199 497 327 497 c 0
 455 497 559 391 559 260 c 0
 559 129 455 22 327 22 c 0
 199 22 95 129 95 260 c 0
EndSplineSet
EndChar

StartChar: oslash
Encoding: 248 248 161
Width: 594
VWidth: 1048
Flags: W
HStem: -7.04 116.04<225.828 363.52> 410 116.04<227.553 368.417>
VStem: 100.16 17.04<208.525 307.49> 476.4 18.96<208.322 310.619>
LayerCount: 2
Fore
SplineSet
417.68 488.08 m 1
 417.68 475.6 499.92 469.12 509.52 469.12 c 1
 519.36 469.12 175.92 18.36 175.92 30.96 c 1
 175.92 43.56 93.44 50.76 83.6 50.76 c 1
 74.12 50.76 417.68 500.68 417.68 488.08 c 1
117.2 258.12 m 0
 117.2 158.2 194.76 109 294.8 109 c 0
 394.48 109 476.4 157.84 476.4 258.36 c 0
 476.4 358.76 394.36 410 294.8 410 c 0
 195.36 410 117.2 358.52 117.2 258.12 c 0
100.16 291.96 m 1
 100.16 438.92 207.44 526.04 326.24 526.04 c 1
 445.04 526.04 495.36 376.64 495.36 229.68 c 1
 495.36 82.72 384.56 -7.04 265.76 -7.04 c 1
 154.88 -7.04 100.16 145 100.16 291.96 c 1
EndSplineSet
EndChar

StartChar: uni0327
Encoding: 807 807 163
Width: 0
Flags: W
VStem: -52.44 64.92<-120.971 -24.7268>
LayerCount: 2
Fore
SplineSet
-44.76 -121.04 m 1
 -47.88 -121.04 -50.64 -26.4 -52.44 -25.8 c 1
 12.48 -16.08 l 1
 18.12 -108.48 l 1
 22.56 -170.96 -15.28 -210.32 -84.8 -205.88 c 1
 -101.52 -205.88 -114.72 -194.48 -124.4 -190.96 c 1
 -100.88 -147.84 l 1
 -73.6 -155.52 l 1
 -42.8 -167.76 -32.52 -158 -44.76 -121.04 c 1
EndSplineSet
EndChar

StartChar: Thorn
Encoding: 222 222 164
Width: 554
Flags: W
HStem: 0 21G<85.12 163.84> 151 65.76<129.52 362.963> 502.24 65.76<138.32 362.063> 687.88 20G<85.12 163.84>
VStem: 85.12 78.72<0 151 216.76 502.24 568 707.88> 129.52 34.32<151 216.76> 138.32 25.52<502.24 568> 422.16 78.72<273.535 442.586>
LayerCount: 2
Fore
SplineSet
138.32 568 m 1xf3
 287.88 568 l 1
 407.88 568 500.88 490 500.88 356 c 0
 500.88 236 404.88 151 281.88 151 c 1
 129.52 151 l 1
 129.52 216.76 l 1xf5
 280.92 216.76 l 1
 365.92 216.76 422.16 268.48 422.16 357 c 0
 422.16 445 371.2 502.24 286.92 502.24 c 1
 138.32 502.24 l 1
 138.32 568 l 1xf3
85.12 707.88 m 1xf9
 163.84 707.88 l 1
 163.84 0 l 1
 85.12 0 l 1
 85.12 707.88 l 1xf9
EndSplineSet
EndChar

StartChar: section
Encoding: 167 167 165
Width: 567
Flags: W
HStem: -127.04 51.92<152.893 357.369> 448.72 20G<104.76 144.576> 611.88 40.8<216.215 382.675>
VStem: 60.76 63.36<274.307 411.385> 124.64 48<447.979 573.74> 406.6 63.36<-30.4716 107.444> 425.6 48.48<179.317 309.783>
LayerCount: 2
Fore
SplineSet
163.72 428.24 m 1xfc
 137.32 408.88 124.12 379.84 124.12 346.4 c 1
 124.12 275.12 159.32 243.44 253.48 224.08 c 1
 297.48 214.4 l 1
 409.24 190.64 469.96 134.32 469.96 40.16 c 1
 469.96 -57.52 389 -127.04 257.88 -127.04 c 1
 145.24 -127.04 92.44 -92.72 42.28 -28.48 c 1
 86.28 9.36 l 1
 123.24 -47.84 174.28 -75.12 261.4 -75.12 c 1
 366.12 -75.12 406.6 -25.84 406.6 39.28 c 1
 406.6 116.72 353.8 144.88 271.08 161.6 c 1
 229.72 170.4 l 1
 116.2 190.64 60.76 254 60.76 345.52 c 1
 60.76 395.68 83.64 438.8 125.88 468.72 c 1
 163.72 428.24 l 1xfc
393.52 170.08 m 1
 416.12 188.4 425.6 215.92 425.6 246.36 c 1
 425.6 317.32 378.08 341.4 304.12 356.32 c 1
 267.44 364.04 l 0
 169.52 381.04 124.64 436.24 124.64 513.36 c 1
 124.64 591 190.76 652.68 304.72 652.68 c 1
 350.48 652.68 415.52 638.68 462.32 571.44 c 1
 427.88 547.68 l 1
 398.88 592.28 356.44 611.88 302 611.88 c 1
 216.24 611.88 172.64 570.68 172.64 514.24 c 1
 172.28 450.4 201.72 422.68 285.68 405.36 c 1
 325.12 396.64 l 1
 422.96 375.52 474.2 327 474.08 246.28 c 1xfa
 474.08 201.2 453.96 163.96 418.4 138.24 c 1
 393.52 170.08 l 1
EndSplineSet
EndChar

StartChar: mu
Encoding: 181 181 166
Width: 586
VWidth: 1048
Flags: W
HStem: 0 65.76<498.28 564.16> 9.32 48.84<212.203 370.919> 499 20G<84.16 164.64 428.68 508.28>
VStem: 84.16 80.48<-191.12 519> 140.84 9.64<110.68 172.046> 428.68 79.6<41.9582 65.76 220.24 519> 498.28 10<0 65.76>
LayerCount: 2
Fore
SplineSet
498.28 65.76 m 1xa2
 564.16 65.76 l 1
 564.16 0 l 1
 498.28 0 l 1
 498.28 65.76 l 1xa2
428.68 263.88 m 1xa4
 508.28 263.88 l 1xa4
 508.28 0 l 1xa2
 443.52 0 l 1
 428.68 81.16 l 1
 428.68 263.88 l 1xa4
140.84 109.2 m 1x6c
 150.48 193.72 l 1
 150.48 110.68 208.8 58.16 298.32 58.16 c 0
 377 58.16 428.68 115.4 428.68 220.24 c 1
 428.68 519 l 1
 508.28 519 l 1
 508.28 224.6 l 1
 483.64 134.84 418.04 9.32 318.6 9.32 c 1
 237.64 -1.6 166.36 37.28 140.84 109.2 c 1x6c
84.16 -191.12 m 1x30
 84.16 519 l 1
 164.64 519 l 1
 164.64 -191.12 l 1
 84.16 -191.12 l 1x30
EndSplineSet
EndChar

StartChar: paragraph
Encoding: 182 182 167
Width: 543
Flags: W
HStem: 0 60<444 511> 648 59<444 511>
VStem: 40 260<455.738 629.145> 228 72<0 372> 372 139<0 60 648 707>
LayerCount: 2
Fore
SplineSet
40 547 m 0xe8
 40 641 111 707 212 707 c 0
 300 707 l 1xd8
 300 544 l 1xe8
 300 372 l 1xd8
 300 372 215 372 212 372 c 0
 108 372 40 441 40 547 c 0xe8
228 372 m 1
 300 372 l 1
 300 0 l 1
 228 0 l 1
 228 372 l 1
444 60 m 1
 511 60 l 1
 511 0 l 1
 444 0 l 1
 444 60 l 1
444 707 m 1
 511 707 l 1
 511 648 l 1
 444 648 l 1
 444 707 l 1
372 707 m 1
 444 707 l 1
 444 0 l 1
 372 0 l 1
 372 707 l 1
EndSplineSet
EndChar

StartChar: cent
Encoding: 162 162 168
Width: 533
VWidth: 1048
Flags: W
VStem: 254.2 76.8<-94 618>
LayerCount: 2
Fore
SplineSet
254.2 618 m 1
 331 618 l 1
 331 -94 l 1
 254.2 -94 l 1
 254.2 618 l 1
426.32 374.6 m 0
 389.96 431.8 334.88 454.64 279.44 441.44 c 0
 198.48 428 136.88 359.12 146.48 238.56 c 0
 152.6 118 223.32 59.32 307.28 66.28 c 0
 361.84 66.28 423.76 87.2 450.16 142.64 c 0
 445.12 132.08 485.96 94.96 476 94.96 c 0
 419.68 28.96 340.64 3.64 264.08 24.04 c 0
 153.2 44.68 64.76 145.96 83.84 292.92 c 0
 93.44 439.88 195.2 522.08 318.56 512.36 c 1
 397.76 512.36 456.48 468.28 493.44 397 c 1
 490.56 402.76 431.72 375.48 426.32 374.6 c 0
EndSplineSet
EndChar

StartChar: exclamdown
Encoding: 161 161 169
Width: 295
VWidth: 1048
Flags: W
HStem: 391.16 49.96<95.94 178.544>
VStem: 92.84 90.16
LayerCount: 2
Fore
SplineSet
106.16 -118 m 1
 106.16 -122.8 109.24 288.6 104.44 288.6 c 1
 99.64 288.6 160.8 292.56 160.8 297.36 c 1
 160.8 302.16 171.8 -109.24 176.6 -109.24 c 1
 181.4 -109.24 106.16 -113.2 106.16 -118 c 1
92.84 388.32 m 1
 92.84 417.36 95.8 441.12 128.36 441.12 c 1
 160.92 441.12 183 473.88 183 444.84 c 1
 183 415.8 177.24 391.16 144.68 391.16 c 1
 112.12 391.16 92.84 359.28 92.84 388.32 c 1
EndSplineSet
EndChar

StartChar: questiondown
Encoding: 191 191 170
Width: 519
VWidth: 1048
Flags: W
HStem: -140.84 72.08<200.126 364.295> 332.6 21.04<259.76 315.2>
VStem: 199.52 159.28<361.652 444.535>
LayerCount: 2
Fore
SplineSet
461.24 -51.12 m 1
 425.16 -96.4 370.16 -140.84 281.76 -140.84 c 1
 163.44 -140.84 87.32 -79.68 87.32 33.36 c 1
 88.2 124.4 168.72 177.64 227.2 223.4 c 0
 268.08 254.2 259.36 281.48 264.16 314.92 c 1
 268.96 329.88 257.6 341.32 259.76 353.64 c 1
 264.56 353.64 310.4 360.68 315.2 360.68 c 1
 323.52 341.32 315.68 324.6 320.48 308.76 c 1
 325.28 242.76 284 202.28 247.44 171.48 c 0
 206.48 137.16 154.64 100.2 159.44 45.64 c 1
 164.24 -37.08 203.04 -68.76 281.76 -68.76 c 1
 339.36 -68.76 373.76 -47.64 412.88 -1.88 c 1
 417.68 -1.88 461.24 -46.32 461.24 -51.12 c 1
358.8 400.68 m 1
 354.72 363.96 326.56 332.6 279.48 332.6 c 1
 231.44 332.6 199.52 365.4 199.52 409.2 c 1
 199.52 448.56 225.08 479.16 265.32 484.56 c 0
 304.36 489.12 358.8 429.72 358.8 400.68 c 1
EndSplineSet
EndChar

